<svg width="58" height="70" viewBox="0 0 58 70" fill="none" xmlns="http://www.w3.org/2000/svg">
<path d="M32.533 53.5429L31.3725 50.0335L33.8836 28.0235L35.7529 11.6401C35.9149 10.2196 34.8947 8.93664 33.4742 8.77456C32.0537 8.61249 30.7707 9.63265 30.6087 11.0532L28.7394 27.4366L27.8075 27.3303L30.1505 6.79444C30.3126 5.37391 29.2924 4.09086 27.8719 3.9288C26.4513 3.76672 25.1683 4.78699 25.0062 6.20752L22.6633 26.7434L21.7315 26.6371L24.4417 2.88246C24.6038 1.46205 23.5835 0.179 22.163 0.0169214C20.7425 -0.145142 19.4595 0.875131 19.2974 2.29554L16.5872 26.0501L15.6553 25.9438L17.8332 6.85511C17.9952 5.43458 16.9751 4.15153 15.5546 3.98946C14.134 3.82739 12.851 4.84766 12.689 6.26819L10.5111 25.3569L9.75158 32.0138L5.19641 25.0631C4.33469 23.7576 2.57792 23.3978 1.27246 24.2594C-0.0330702 25.1211 -0.392899 26.8779 0.468758 28.1834L8.74737 40.8155L7.9999 47.3669L6.0114 50.5C5.62349 51.1112 6.00892 51.9176 6.72814 51.9997L31.4908 54.8249C32.2021 54.9061 32.7577 54.2225 32.533 53.5429Z" fill="#DBD8DD"/>
<path d="M34.3178 69.1194L33.9374 65.4428L22.6227 46.3975L14.2004 32.2209C13.4702 30.9917 13.8747 29.4032 15.1039 28.673C16.3331 27.9427 17.9215 28.3472 18.6517 29.5764L27.074 43.753L27.8804 43.2739L17.3235 25.5042C16.5932 24.275 16.9977 22.6865 18.2268 21.9563C19.4561 21.226 21.0446 21.6305 21.7748 22.8597L32.3317 40.6294L33.138 40.1504L20.9264 19.5955C20.1963 18.3664 20.6007 16.7779 21.8299 16.0476C23.0591 15.3174 24.6476 15.7219 25.3778 16.951L37.5893 37.5059L38.3957 37.0268L28.5828 20.5093C27.8525 19.2801 28.2569 17.6916 29.4861 16.9614C30.7153 16.2311 32.3038 16.6356 33.0341 17.8648L42.847 34.3823L46.2691 40.1426L47.574 31.9353C47.8246 30.3913 49.2794 29.3428 50.8234 29.5934C52.3674 29.8441 53.4159 31.2989 53.1653 32.8429L50.7938 47.7587L54.1617 53.4276L57.26 55.47C57.8644 55.8684 57.8435 56.762 57.2211 57.1317L35.7939 69.8615C35.1785 70.2271 34.3915 69.8314 34.3178 69.1194Z" fill="#EDEDED"/>
</svg>
