<svg width="51" height="65" viewBox="0 0 51 65" fill="none" xmlns="http://www.w3.org/2000/svg">
<path d="M6.29245 23.6114C5.89524 23.6114 5.50634 23.411 5.28225 23.047C4.55424 21.8673 3.19426 20.5025 1.63271 20.5523C0.968732 20.5168 0.430432 20.0567 0.411461 19.4034C0.391305 18.7477 0.905891 18.2011 1.56039 18.181C4.05862 18.1063 6.18929 19.9998 7.30028 21.8032C7.64413 22.3605 7.47102 23.0909 6.91375 23.4347C6.72048 23.5545 6.50469 23.6114 6.29245 23.6114Z" fill="#436B1C"/>
<path d="M30.5598 7.82276C30.401 5.51305 28.4813 3.6871 26.1313 3.6871C26.1242 3.6871 26.1183 3.68829 26.1112 3.68829C26.1527 3.33851 26.1289 2.96858 26.0163 2.58323C25.6985 1.49951 24.7453 0.667165 23.6236 0.533183C22.7035 0.4241 21.8593 0.75372 21.2676 1.33826C20.7044 0.829604 19.967 0.511841 19.1488 0.511841C17.3952 0.511841 15.9748 1.93347 15.9748 3.68591C15.9748 3.69184 15.9759 3.69658 15.9759 3.70251C13.8453 3.86377 12.1652 5.64111 12.1652 7.81328C12.1652 8.14527 12.209 8.46659 12.2825 8.77605C9.74637 8.88158 7.72122 10.966 7.72122 13.5283C7.72122 14.3962 7.95717 15.2072 8.36267 15.9079C7.58368 16.5482 7.08569 17.5193 7.08569 18.6065C7.08569 19.6002 7.50661 20.4906 8.17297 21.1249C11.0328 18.788 14.0374 26.604 17.5754 32.8442C18.7504 34.9168 31.4455 32.7091 32.4569 33.9967C33.6094 32.9604 34.354 14.9143 34.386 13.3291C34.4358 10.7858 32.8209 8.61598 30.5598 7.82276Z" fill="#88C057"/>
<path d="M32.1828 31.4606L33.0282 30.9543C34.5933 30.0152 36.5473 30.0152 38.1112 30.9543L38.9566 31.4606C40.5217 32.3996 42.4757 32.3996 44.0396 31.4606L46.4288 30.3982C46.7797 29.4188 47.024 28.7098 47.1212 28.3956C49.3503 21.2258 50.7862 13.6765 50.9818 6.14626C51.0601 3.11802 48.5559 -1.60455 44.3953 0.541532C40.3059 2.64968 37.3773 10.7348 35.3189 14.5741C32.395 20.0294 30.0829 25.9626 28.436 32.0084C29.6905 32.3249 31.0398 32.1459 32.1828 31.4606Z" fill="#EEAF4B"/>
<path d="M1.35751 30.2429L2.95225 31.1997C4.78413 32.2988 7.0725 32.2988 8.90438 31.1997L9.31463 30.9531C10.8797 30.014 12.8337 30.014 14.3976 30.9531L15.243 31.4594C16.1619 32.0107 17.2148 32.2289 18.244 32.1328C19.0028 29.682 18.7479 26.6182 17.5717 24.5445C13.6163 17.5667 10.326 18.9884 7.16024 22.0178C6.55317 22.5988 5.81093 23.0244 5.0023 23.2556C1.53062 24.248 -1.03164 25.8712 0.425563 30.2915C0.682856 30.1041 1.04093 30.0531 1.35751 30.2429Z" fill="#ED3F32"/>
<path d="M35.1935 28.8794C35.0678 28.8794 34.9386 28.8592 34.8129 28.8166C34.1928 28.6055 33.8608 27.932 34.0718 27.3119C34.8627 24.9856 37.4024 23.7406 39.7252 24.5232C40.8148 24.8943 42.0017 24.3086 42.3716 23.2189C42.5815 22.5988 43.2526 22.2645 43.8762 22.4767C44.4964 22.6878 44.8283 23.3612 44.6173 23.9813C43.8276 26.3088 41.2903 27.5585 38.964 26.7701C37.8755 26.4001 36.6886 26.987 36.3175 28.0743C36.148 28.5699 35.6867 28.8794 35.1935 28.8794Z" fill="#A46F3E"/>
<path d="M37.9974 20.6186C37.8718 20.6186 37.7425 20.5985 37.6168 20.5558C36.9967 20.3447 36.6647 19.6712 36.8758 19.0511C37.2588 17.9236 38.0579 17.0118 39.125 16.4853C40.1921 15.9589 41.4004 15.8794 42.5291 16.2624C43.6211 16.6347 44.8056 16.0478 45.1756 14.957C45.3854 14.3357 46.0589 14.0025 46.679 14.2147C47.2991 14.4258 47.6311 15.0993 47.4201 15.7194C46.6304 18.048 44.093 19.2954 41.7667 18.5093C41.2391 18.3291 40.6723 18.3658 40.1732 18.6124C39.674 18.8591 39.3005 19.2847 39.1203 19.8135C38.9531 20.308 38.4919 20.6186 37.9974 20.6186Z" fill="#A46F3E"/>
<path d="M40.8028 12.3568C40.6771 12.3568 40.5479 12.3366 40.421 12.2939C39.8009 12.0829 39.4689 11.4094 39.68 10.7893C40.3724 8.74756 42.6003 7.65199 44.6421 8.34206C45.0333 8.47485 45.4507 8.44877 45.8195 8.26736C46.1882 8.08595 46.4645 7.77056 46.5973 7.38047C46.8071 6.76036 47.4794 6.42718 48.1019 6.63823C48.722 6.84928 49.054 7.52275 48.8429 8.14286C48.5062 9.13291 47.8055 9.93324 46.8688 10.3945C45.9309 10.8569 44.8697 10.9245 43.8797 10.5889C43.0758 10.315 42.1984 10.7478 41.9257 11.5529C41.7573 12.0461 41.2961 12.3568 40.8028 12.3568Z" fill="#A46F3E"/>
<path d="M20.7021 16.713C19.5816 18.2034 17.8137 19.9677 18.4943 23.0837L20.325 31.4606H20.3262L21.1716 30.9543C22.7367 30.0152 24.6907 30.0152 26.2546 30.9543L27.1 31.4606C27.7877 31.8732 28.4363 32.0095 28.4363 32.0095C29.6717 27.4767 31.2807 23.0066 33.2406 18.7548C32.3229 16.4593 30.363 15.691 28.9402 14.9049C28.9319 14.9001 28.9236 14.8954 28.9165 14.8918C28.0165 14.3761 27.9608 13.1441 28.6378 12.3592C28.9046 12.0498 29.0279 11.6241 28.9354 11.1972L28.792 10.5427C28.6343 9.82185 27.9157 9.36181 27.196 9.5195L19.9906 11.0917C19.2697 11.2494 18.8097 11.9679 18.9674 12.6876L19.1109 13.3421C19.2057 13.7785 19.5069 14.1164 19.8887 14.2812C20.7649 14.6594 21.2996 15.6376 20.8514 16.4806C20.8088 16.5601 20.759 16.6372 20.7021 16.713Z" fill="#DAE7EF"/>
<path d="M28.2621 12.9237L20.1058 14.7058C19.2059 14.9026 18.3071 14.3264 18.1103 13.4264L17.9929 12.8905C17.7961 11.9906 18.3723 11.0918 19.2723 10.895L27.4286 9.11291C28.3285 8.91608 29.2273 9.49233 29.4241 10.3923L29.5415 10.9282C29.7383 11.8293 29.162 12.7269 28.2621 12.9237Z" fill="white"/>
<path d="M48.5015 30.0365L46.4325 59.7129C46.2807 62.676 43.8347 64.9999 40.8681 64.9999H7.5848C4.61822 64.9999 2.17215 62.676 2.02039 59.7129L0.00116829 31.0099C-0.0332165 30.3353 0.69835 29.8954 1.27815 30.2428L2.87289 31.1996C4.70477 32.2988 6.99314 32.2988 8.82502 31.1996L9.23527 30.953C10.8004 30.014 12.7544 30.014 14.3183 30.953L15.1637 31.4605C16.7288 32.3996 18.6828 32.3996 20.2467 31.4605L21.0921 30.953C22.6572 30.014 24.6112 30.014 26.1751 30.953L27.0205 31.4605C28.5856 32.3996 30.5396 32.3996 32.1035 31.4605L32.9489 30.953C34.514 30.014 36.468 30.014 38.032 30.953L38.8773 31.4605C40.4424 32.3996 42.3965 32.3996 43.9604 31.4605L47.9763 29.676C48.2312 29.5622 48.5158 29.7579 48.5015 30.0365Z" fill="#FBD490"/>
<path d="M14.2281 49.7996H5.92836C5.27386 49.7996 4.74268 49.2696 4.74268 48.6139C4.74268 47.9582 5.27386 47.4282 5.92836 47.4282H14.2281C14.8826 47.4282 15.4138 47.9582 15.4138 48.6139C15.4138 49.2696 14.8826 49.7996 14.2281 49.7996Z" fill="#E0B877"/>
<path d="M16.5995 54.5423H5.92836C5.27386 54.5423 4.74268 54.0123 4.74268 53.3566C4.74268 52.7009 5.27386 52.1709 5.92836 52.1709H16.5995C17.254 52.1709 17.7852 52.7009 17.7852 53.3566C17.7852 54.0123 17.254 54.5423 16.5995 54.5423Z" fill="#E0B877"/>
<path d="M18.9709 59.2849H5.92836C5.27386 59.2849 4.74268 58.7549 4.74268 58.0993C4.74268 57.4436 5.27386 56.9136 5.92836 56.9136H18.9709C19.6254 56.9136 20.1566 57.4436 20.1566 58.0993C20.1566 58.7549 19.6254 59.2849 18.9709 59.2849Z" fill="#E0B877"/>
<path d="M26.0851 59.2849H23.7138C23.0593 59.2849 22.5281 58.7549 22.5281 58.0993C22.5281 57.4436 23.0593 56.9136 23.7138 56.9136H26.0851C26.7396 56.9136 27.2708 57.4436 27.2708 58.0993C27.2708 58.7549 26.7396 59.2849 26.0851 59.2849Z" fill="#E0B877"/>
</svg>
