<svg width="56" height="70" viewBox="0 0 56 70" fill="none" xmlns="http://www.w3.org/2000/svg">
<path d="M53.4858 36.5736H41.9473V41.2838H53.4858C54.7866 41.2838 55.8408 40.2294 55.8408 38.9288C55.8408 37.6283 54.7866 36.5736 53.4858 36.5736Z" fill="#8A8A8A"/>
<path d="M40.435 65.7695H12.5965C11.199 65.7695 10.0662 64.6366 10.0662 63.2391C10.0662 61.8416 11.199 60.7087 12.5965 60.7087H40.4349V65.7695H40.435Z" fill="#8A8A8A"/>
<path opacity="0.1" d="M33.8271 65.7695H40.4354V60.7087H32.4954L33.8271 65.7695Z" fill="black"/>
<path d="M41.255 69.9992C40.1333 69.9992 39.1085 69.2478 38.8096 68.1122L33.1631 46.6553C32.8073 45.3037 33.6146 43.92 34.9661 43.5643C36.3188 43.209 37.7014 44.0161 38.0572 45.3673L43.7037 66.8242C44.0595 68.1758 43.2522 69.5595 41.9007 69.9153C41.6848 69.9721 41.4681 69.9992 41.255 69.9992Z" fill="#8A8A8A"/>
<path d="M15.9898 61.392L19.8676 46.6563C20.2234 45.3047 19.4161 43.921 18.0646 43.5653C16.7119 43.2099 15.3293 44.0171 14.9736 45.3683L11.1755 59.8005L15.9898 61.392Z" fill="#8A8A8A"/>
<path d="M13.2219 70C16.9559 70 19.9829 66.973 19.9829 63.239C19.9829 59.505 16.9559 56.478 13.2219 56.478C9.48792 56.478 6.46094 59.505 6.46094 63.239C6.46094 66.973 9.48792 70 13.2219 70Z" fill="#424242"/>
<path d="M13.2219 66.122C14.8142 66.122 16.1051 64.8311 16.1051 63.2387C16.1051 61.6463 14.8142 60.3555 13.2219 60.3555C11.6295 60.3555 10.3386 61.6463 10.3386 63.2387C10.3386 64.8311 11.6295 66.122 13.2219 66.122Z" fill="#9FACB3"/>
<path opacity="0.1" d="M52.6862 36.5736H41.9473V41.2838H51.4028C52.0078 39.7917 52.4438 38.2138 52.6862 36.5736Z" fill="black"/>
<path d="M3.64136 29.8981V33.5394C3.64136 43.013 11.3212 50.6928 20.7948 50.6928H32.2366C41.7102 50.6928 49.39 43.013 49.39 33.5394V29.8981H3.64136Z" fill="#E6643C"/>
<path opacity="0.1" d="M9.27208 33.5394V29.8981H3.64136V33.5394C3.64136 43.013 11.3212 50.6928 20.7948 50.6928H26.4255C16.9518 50.6928 9.27208 43.013 9.27208 33.5394Z" fill="black"/>
<path d="M26.0825 23.7023C25.6806 23.7023 25.2967 23.4717 25.1202 23.0819C23.6823 19.9077 23.6823 16.2668 25.1202 13.0929C26.3074 10.4725 26.3074 7.4668 25.1202 4.84647C24.8796 4.31532 25.1152 3.68983 25.6463 3.44907C26.1776 3.20845 26.8031 3.44401 27.0437 3.97516C28.4818 7.14934 28.4818 10.7901 27.0437 13.9642C25.8566 16.5845 25.8566 19.5904 27.0437 22.2107C27.2843 22.7419 27.0488 23.3673 26.5176 23.6081C26.3763 23.6721 26.2282 23.7023 26.0825 23.7023Z" fill="#9FACB3"/>
<path d="M17.1932 19.3649C16.7914 19.3649 16.4075 19.1343 16.231 18.7445C14.7931 15.5703 14.7931 11.9294 16.231 8.75549C17.2875 6.42308 17.4038 3.78525 16.5793 1.38585C16.4042 0.876032 16.6549 0.316993 17.1459 0.0945534C17.7125 -0.162203 18.379 0.123811 18.5805 0.712245C19.5744 3.61558 19.4324 6.80562 18.1542 9.62679C16.9724 12.2355 16.9671 15.2261 18.1383 17.8381C18.3637 18.3408 18.1981 18.95 17.7198 19.2236C17.552 19.3198 17.3708 19.3649 17.1932 19.3649Z" fill="#9FACB3"/>
<path d="M35.8386 19.3649C35.4367 19.3649 35.0528 19.1343 34.8763 18.7445C33.4384 15.5703 33.4384 11.9294 34.8763 8.75549C35.9329 6.42308 36.0491 3.78525 35.2247 1.38585C35.0496 0.876032 35.3003 0.316993 35.7913 0.0945534C36.3578 -0.162203 37.0243 0.123811 37.2258 0.712245C38.2198 3.61558 38.0777 6.80562 36.7995 9.62679C35.6178 12.2355 35.6124 15.2261 36.7837 17.8381C37.009 18.3408 36.8434 18.95 36.3652 19.2236C36.197 19.3198 36.016 19.3649 35.8386 19.3649Z" fill="#9FACB3"/>
<path d="M49.3902 26.2563H3.64159C1.63047 26.2563 0.000244141 27.8867 0.000244141 29.8977C0.000244141 31.9088 1.6306 33.539 3.64159 33.539H49.3901C51.4012 33.539 53.0314 31.9087 53.0314 29.8977C53.0316 27.8867 51.4012 26.2563 49.3902 26.2563Z" fill="#8A8A8A"/>
<path opacity="0.1" d="M5.63072 29.8979C5.63072 27.8868 7.26108 26.2566 9.27207 26.2566H3.64134C1.63022 26.2566 0 27.887 0 29.8979C0 31.9091 1.63036 33.5393 3.64134 33.5393H9.27207C7.26108 33.5393 5.63072 31.9089 5.63072 29.8979Z" fill="black"/>
</svg>
