<svg width="64" height="65" viewBox="0 0 64 65" fill="none" xmlns="http://www.w3.org/2000/svg">
<path d="M3.09495 41.272V45.3986H2.0633C0.917136 45.3986 0 44.4711 0 43.3353C0 42.1912 0.917136 41.272 2.0633 41.272H3.09495Z" fill="#ED5565"/>
<path d="M9.28491 56.7468H17.5381C17.5381 59.0268 15.6904 60.8734 13.4115 60.8734C11.1408 60.8734 9.28491 59.0268 9.28491 56.7468Z" fill="#E6E9ED"/>
<path d="M17.538 56.7468H21.6646C21.6646 61.3067 17.9713 65 13.4114 65C8.86182 65 5.1582 61.3067 5.1582 56.7468H9.2848C9.2848 59.0268 11.1407 60.8734 13.4114 60.8734C15.6903 60.8734 17.538 59.0268 17.538 56.7468Z" fill="#545C66"/>
<path d="M50.5509 56.7469C50.5509 59.0268 52.3965 60.8735 54.6775 60.8735C56.9564 60.8735 58.8041 59.0268 58.8041 56.7469V56.7366H62.9307V56.7469C62.9307 61.3068 59.2374 65.0001 54.6775 65.0001C50.1156 65.0001 46.4243 61.3068 46.4243 56.7469V56.7366H50.5509V56.7469Z" fill="#545C66"/>
<path d="M54.6763 14.439C55.2437 14.439 55.708 14.9032 55.708 15.4706V21.6708C55.708 22.2382 55.2437 22.7025 54.6763 22.7025H53.6447C53.0773 22.7025 52.613 22.2382 52.613 21.6708V15.4706C52.613 14.9032 53.0773 14.439 53.6447 14.439H54.6763Z" fill="#E6E9ED"/>
<path d="M31.9823 31.9873C32.5497 31.9873 33.0139 32.4515 33.0139 33.019V35.0719C33.0139 35.6393 32.5497 36.1036 31.9823 36.1036H8.25333C7.68592 36.1036 7.22168 35.6393 7.22168 35.0719V33.019C7.22168 32.4515 7.68592 31.9873 8.25333 31.9873H31.9823Z" fill="#656D78"/>
<path d="M5.15836 56.7468C4.59095 56.7468 4.12671 56.2826 4.12671 55.7151V50.5548C4.12671 49.9874 4.35883 49.5232 4.64253 49.5232C4.92624 49.5232 5.6226 49.5232 6.19001 49.5232H8.2533H10.3166H16.5065H18.5698H20.6331H22.1806C22.1806 49.5232 22.6964 49.9874 22.6964 50.5548V55.7151C22.6964 56.2826 22.2321 56.7468 21.6647 56.7468H5.15836Z" fill="#656D78"/>
<path d="M37.1392 16.5125C38.274 16.5125 39.2025 17.4317 39.2025 18.5757C39.2025 19.7116 38.274 20.639 37.1392 20.639C35.9931 20.639 35.0759 19.7116 35.0759 18.5757C35.0759 17.4317 35.9931 16.5125 37.1392 16.5125Z" fill="#656D78"/>
<path d="M50.5508 56.7366H46.4242L43.5872 56.7469C49.1787 56.6231 53.6664 52.0529 53.6664 46.4304C59.3508 46.4407 63.9509 51.0429 63.9509 56.7366H62.9316H58.805H50.5508Z" fill="#7BB542"/>
<path d="M46.4243 20.6391C47.5591 20.6391 48.4876 19.7116 48.4876 18.5758C48.4876 17.4317 47.5591 16.5125 46.4243 16.5125H40.6677C41.4714 14.6865 43.2871 13.4175 45.403 13.4175V13.4072H52.6132L53.6459 14.4389V22.7024L52.6132 23.734H50.5716H45.403C43.2871 23.734 41.4621 22.4661 40.6677 20.6391H46.4243Z" fill="#A0D468"/>
<path d="M40.6676 16.5125H46.4242C47.5591 16.5125 48.4875 17.4317 48.4875 18.5757C48.4875 19.7116 47.5591 20.639 46.4242 20.639H40.6676H37.1394C38.2742 20.639 39.2027 19.7116 39.2027 18.5757C39.2027 17.4317 38.2742 16.5125 37.1394 16.5125H40.6676Z" fill="#545C66"/>
<path d="M53.6654 46.4304C53.6654 52.0529 49.1777 56.6231 43.5862 56.7469C43.5037 56.7469 43.4314 56.7469 43.3489 56.7469H27.8536C25.0041 56.7469 22.6953 54.436 22.6953 51.5886H31.9802H43.3489C46.1963 51.5886 48.5072 49.2777 48.5072 46.4304H48.4865L45.4019 23.7341H50.5705L53.6654 46.4304Z" fill="#8CC152"/>
<path d="M54.6774 60.8735C52.3964 60.8735 50.5508 59.0268 50.5508 56.7469V56.7366H58.804V56.7469C58.804 59.0268 56.9563 60.8735 54.6774 60.8735Z" fill="#E6E9ED"/>
<path d="M33.0138 37.1352V51.5886H22.6963H4.12662L3.09497 50.5549V45.3987V41.2721V40.2404C3.09497 37.9605 4.94059 36.1138 7.22157 36.1138V36.1035H31.9811L33.0138 37.1352Z" fill="#A0D468"/>
<path d="M4.12662 51.5865C4.69638 51.5865 5.15827 51.1246 5.15827 50.5548C5.15827 49.9851 4.69638 49.5232 4.12662 49.5232C3.55686 49.5232 3.09497 49.9851 3.09497 50.5548C3.09497 51.1246 3.55686 51.5865 4.12662 51.5865Z" fill="#A0D468"/>
<path d="M31.9823 38.1668C32.5521 38.1668 33.014 37.7049 33.014 37.1352C33.014 36.5654 32.5521 36.1035 31.9823 36.1035C31.4126 36.1035 30.9507 36.5654 30.9507 37.1352C30.9507 37.7049 31.4126 38.1668 31.9823 38.1668Z" fill="#A0D468"/>
<path d="M52.6132 23.733C52.0427 23.733 51.5815 23.2718 51.5815 22.7013V14.4399C51.5815 13.8694 52.0427 13.4082 52.6132 13.4082C53.1837 13.4082 53.6448 13.8694 53.6448 14.4399V22.7013C53.6448 23.2718 53.1837 23.733 52.6132 23.733Z" fill="#A0D468"/>
<path d="M26.8168 6.18989C26.2463 6.18989 25.7852 5.72875 25.7852 5.15824C25.7852 3.4519 24.3966 2.0633 22.6902 2.0633C20.9839 2.0633 19.5953 3.4519 19.5953 5.15824C19.5953 5.72875 19.1341 6.18989 18.5636 6.18989C17.9931 6.18989 17.532 5.72875 17.532 5.15824C17.532 2.31502 19.846 0 22.6902 0C25.5345 0 27.8485 2.31502 27.8485 5.15824C27.8485 5.72875 27.3873 6.18989 26.8168 6.18989Z" fill="#CCD1D9"/>
<path d="M18.5636 10.3166C17.9931 10.3166 17.532 9.85442 17.532 9.28495V5.15836C17.532 4.58889 17.9931 4.12671 18.5636 4.12671C19.1341 4.12671 19.5953 4.58889 19.5953 5.15836V9.28495C19.5953 9.85442 19.1341 10.3166 18.5636 10.3166Z" fill="#CCD1D9"/>
<path d="M26.8168 10.3166C26.2463 10.3166 25.7852 9.85442 25.7852 9.28495V5.15836C25.7852 4.58889 26.2463 4.12671 26.8168 4.12671C27.3873 4.12671 27.8485 4.58889 27.8485 5.15836V9.28495C27.8485 9.85442 27.3873 10.3166 26.8168 10.3166Z" fill="#CCD1D9"/>
<path d="M22.6901 6.18989C22.1196 6.18989 21.6585 5.72875 21.6585 5.15824C21.6585 3.4519 20.2699 2.0633 18.5635 2.0633C16.8572 2.0633 15.4686 3.4519 15.4686 5.15824C15.4686 5.72875 15.0074 6.18989 14.4369 6.18989C13.8664 6.18989 13.4053 5.72875 13.4053 5.15824C13.4053 2.31502 15.7193 0 18.5635 0C21.4078 0 23.7218 2.31502 23.7218 5.15824C23.7218 5.72875 23.2606 6.18989 22.6901 6.18989Z" fill="#E6E9ED"/>
<path d="M14.4369 10.3166C13.8664 10.3166 13.4053 9.85442 13.4053 9.28495V5.15836C13.4053 4.58889 13.8664 4.12671 14.4369 4.12671C15.0074 4.12671 15.4686 4.58889 15.4686 5.15836V9.28495C15.4686 9.85442 15.0074 10.3166 14.4369 10.3166Z" fill="#E6E9ED"/>
<path d="M22.6901 10.3166C22.1196 10.3166 21.6584 9.85442 21.6584 9.28495V5.15836C21.6584 4.58889 22.1196 4.12671 22.6901 4.12671C23.2606 4.12671 23.7217 4.58889 23.7217 5.15836V9.28495C23.7217 9.85442 23.2606 10.3166 22.6901 10.3166Z" fill="#E6E9ED"/>
<path d="M31.9811 8.25513C31.4137 8.25513 30.4852 8.25513 29.9178 8.25513H27.8545C27.2871 8.25513 26.3586 8.25513 25.7912 8.25513H23.7279C23.1605 8.25513 22.232 8.25513 21.6646 8.25513H19.6013C19.0339 8.25513 18.1054 8.25513 17.538 8.25513H12.3798C11.8124 8.25513 11.3481 8.71834 11.3481 9.28678V30.9411C11.3481 31.5075 11.8124 31.9727 12.3798 31.9727H31.9811C32.5485 31.9727 33.0128 31.5075 33.0128 30.9411V9.28678C33.0128 8.71834 32.5485 8.25513 31.9811 8.25513Z" fill="#F7C292"/>
<path d="M27.8547 8.25513C27.2873 8.25513 26.3588 8.25513 25.7914 8.25513H23.7281C23.1607 8.25513 22.2322 8.25513 21.6648 8.25513H19.6015C19.0341 8.25513 18.1056 8.25513 17.5382 8.25513H15.4749C14.9075 8.25513 13.979 8.25513 13.4116 8.25513H8.25333C7.68592 8.25513 7.22168 8.71834 7.22168 9.28678V30.9411C7.22168 31.5075 7.68592 31.9727 8.25333 31.9727H27.8547C28.4221 31.9727 28.8863 31.5075 28.8863 30.9411V9.28678C28.8863 8.71834 28.4221 8.25513 27.8547 8.25513Z" fill="#FFD2A6"/>
<path d="M14.9601 28.8902C14.3896 28.8902 13.9285 28.4291 13.9285 27.8586V19.6054C13.9285 19.0349 14.3896 18.5737 14.9601 18.5737C15.5306 18.5737 15.9918 19.0349 15.9918 19.6054V27.8586C15.9918 28.4291 15.5306 28.8902 14.9601 28.8902Z" fill="#545C66"/>
<path d="M12.381 19.6038C11.8105 19.6038 11.3494 19.1427 11.3494 18.5722V14.4435C11.3494 13.873 11.8105 13.4119 12.381 13.4119C12.9515 13.4119 13.4127 13.873 13.4127 14.4435V18.5722C13.4127 19.1427 12.9515 19.6038 12.381 19.6038Z" fill="#545C66"/>
<path d="M17.5404 19.6033C16.9699 19.6033 16.5088 19.1422 16.5088 18.5717V14.443C16.5088 13.8725 16.9699 13.4114 17.5404 13.4114C18.1109 13.4114 18.5721 13.8725 18.5721 14.443V18.5717C18.5721 19.1422 18.1109 19.6033 17.5404 19.6033Z" fill="#545C66"/>
<path d="M20.6342 28.8903C20.0637 28.8903 19.6025 28.4292 19.6025 27.8587V14.4411C19.6025 13.8706 20.0637 13.4094 20.6342 13.4094C21.2047 13.4094 21.6658 13.8706 21.6658 14.4411V27.8587C21.6658 28.4292 21.2047 28.8903 20.6342 28.8903Z" fill="#545C66"/>
<path d="M20.6278 13.4094C20.0573 13.4094 19.5962 13.8706 19.5962 14.4411V21.6626H19.6024C19.6034 22.2331 20.0635 22.6943 20.634 22.6943H23.729C24.2995 22.6943 24.7606 22.2331 24.7606 21.6626V17.5422C24.7606 15.2633 22.9068 13.4094 20.6278 13.4094Z" fill="#656D78"/>
<path d="M14.9589 17.5359C14.3884 17.5359 13.9272 17.0748 13.9272 16.5043V14.443C13.9272 13.8725 14.3884 13.4114 14.9589 13.4114C15.5294 13.4114 15.9906 13.8725 15.9906 14.443V16.5043C15.9906 17.0748 15.5294 17.5359 14.9589 17.5359Z" fill="#545C66"/>
<path d="M17.5401 16.5063H12.3808C11.8103 16.5063 11.3492 16.9675 11.3492 17.538V18.5696C11.3492 18.5717 11.3481 18.5717 11.3481 18.5738C11.3481 19.7106 12.2725 20.635 13.4083 20.635H16.4961C16.5002 20.635 16.5033 20.6371 16.5064 20.6371C17.6453 20.6371 18.5718 19.7107 18.5718 18.5717V17.538C18.5718 16.9675 18.1106 16.5063 17.5401 16.5063Z" fill="#656D78"/>
</svg>
