<svg width="276" height="68" viewBox="0 0 276 68" fill="none" xmlns="http://www.w3.org/2000/svg">
<path d="M59.8732 7.68461C60.0277 7.69565 60.1933 7.72875 60.3698 7.78393C60.5464 7.83911 60.7064 7.93292 60.8499 8.06535C61.0265 8.21985 61.1479 8.42401 61.2141 8.67784C61.2803 8.92063 61.3024 9.22412 61.2803 9.5883C61.2693 9.84212 61.2582 10.0904 61.2472 10.3332C61.2362 10.565 61.2251 10.8078 61.2141 11.0616C61.203 11.3044 61.192 11.5637 61.181 11.8396C61.1699 12.1155 61.1589 12.419 61.1479 12.7501C61.1258 13.1143 61.1424 13.4288 61.1975 13.6936C61.2637 13.9475 61.4072 14.1461 61.6279 14.2896C61.8707 14.433 62.1963 14.5489 62.6046 14.6372C63.0129 14.7145 63.4378 14.7752 63.8792 14.8193C64.3317 14.8634 64.7676 14.891 65.187 14.9021C65.6174 14.9131 65.9705 14.9186 66.2464 14.9186C67.2176 14.9186 68.0618 14.9076 68.7792 14.8855C69.4965 14.8634 70.109 14.8248 70.6166 14.7696C71.1243 14.7145 71.5326 14.6482 71.8416 14.571C72.1506 14.4827 72.3879 14.3723 72.5534 14.2399C72.7411 14.0965 72.8845 13.9088 72.9838 13.6771C73.0942 13.4343 73.1825 13.1529 73.2487 12.8328C73.3039 12.6342 73.3535 12.5238 73.3977 12.5018C73.4529 12.4797 73.508 12.5956 73.5632 12.8494C73.6405 13.1915 73.7122 13.5722 73.7784 13.9916C73.8446 14.3999 73.8777 14.7972 73.8777 15.1835C73.8777 15.6028 73.8281 15.9615 73.7288 16.2595C73.6515 16.4802 73.5522 16.7009 73.4308 16.9216C73.3094 17.1424 73.1328 17.341 72.9011 17.5176C72.6804 17.6831 72.3824 17.8155 72.0072 17.9149C71.643 18.0252 71.1795 18.0804 70.6166 18.0804L65.9319 18.0307C65.6119 18.0307 65.1815 18.0307 64.6407 18.0307C64.111 18.0418 63.5592 18.0307 62.9853 17.9976C62.4115 17.9645 61.8652 17.9038 61.3465 17.8155C60.8389 17.7162 60.4471 17.5672 60.1712 17.3686C59.8732 17.1479 59.6415 16.8996 59.4759 16.6237C59.3214 16.3478 59.2056 16.0553 59.1283 15.7463C59.0511 15.4373 59.0069 15.1173 58.9959 14.7862C58.9848 14.4551 58.9848 14.124 58.9959 13.793C59.0069 13.506 59.0179 13.1308 59.029 12.6673C59.0511 12.2038 59.0897 11.641 59.1449 10.9788C59.1559 10.8795 59.1449 10.7857 59.1117 10.6974C59.0786 10.6091 58.9904 10.565 58.8469 10.565C58.7365 10.565 58.6151 10.6146 58.4827 10.714C58.3503 10.8133 58.2565 10.896 58.2013 10.9623C57.8481 11.3154 57.5391 11.7182 57.2743 12.1707C57.0205 12.6232 56.7997 13.1087 56.6121 13.6274C56.4245 14.1351 56.2645 14.6648 56.1321 15.2166C56.0107 15.7684 55.9003 16.3147 55.801 16.8554C55.7458 17.1865 55.641 17.4734 55.4865 17.7162C55.343 17.959 55.1057 18.0804 54.7747 18.0804C54.4546 18.0804 54.2063 17.9976 54.0297 17.8321C53.8532 17.6666 53.7594 17.4293 53.7483 17.1203C53.7373 16.6678 53.7373 16.2264 53.7483 15.796C53.7594 15.3656 53.7759 14.9131 53.798 14.4386C53.82 13.964 53.8476 13.4509 53.8807 12.8991C53.9249 12.3473 53.9746 11.7237 54.0297 11.0285C54.0408 10.9512 54.0297 10.8629 53.9966 10.7636C53.9635 10.6533 53.8918 10.5981 53.7814 10.5981C53.6821 10.587 53.5883 10.6202 53.5 10.6974C53.4228 10.7636 53.3731 10.8078 53.351 10.8298C52.9317 11.2933 52.562 11.79 52.2419 12.3197C51.9219 12.8384 51.6349 13.3791 51.3811 13.942C51.1383 14.5048 50.9176 15.0897 50.719 15.6967C50.5314 16.2926 50.3603 16.9051 50.2058 17.5341C50.1396 17.799 50.0016 17.97 49.792 18.0473C49.5933 18.1245 49.3947 18.1632 49.196 18.1632C48.876 18.1632 48.6166 18.0749 48.418 17.8983C48.2193 17.7328 48.1145 17.4734 48.1035 17.1203L48.0704 15.6304C48.0704 15.509 48.0207 15.4815 47.9214 15.5477C47.5572 15.7905 47.1875 15.9505 46.8123 16.0277C46.437 16.105 46.0729 16.1326 45.7197 16.1105C45.3776 16.0774 45.0576 16.0167 44.7596 15.9284C44.4616 15.8291 44.2133 15.7298 44.0147 15.6304C43.8602 15.5532 43.794 15.4925 43.816 15.4483C43.8381 15.3932 43.9098 15.338 44.0312 15.2828C44.2078 15.2166 44.4064 15.1338 44.6272 15.0345C44.8479 14.9241 45.0741 14.8027 45.3059 14.6703C45.5487 14.5269 45.7804 14.3723 46.0011 14.2068C46.2329 14.0302 46.437 13.8426 46.6136 13.644C46.8454 13.3791 47.033 13.1419 47.1765 12.9322C47.331 12.7225 47.4468 12.5294 47.5241 12.3528C47.6124 12.1652 47.6675 11.9886 47.6896 11.8231C47.7227 11.6575 47.7393 11.481 47.7393 11.2933C47.7393 11.1278 47.7282 10.9567 47.7062 10.7802C47.6951 10.5926 47.6841 10.4105 47.6731 10.2339C47.662 9.98007 47.7117 9.75936 47.8221 9.57175C47.9324 9.3731 48.1311 9.15238 48.418 8.90959L50.7852 6.95624C50.8293 6.92314 50.8845 6.90106 50.9507 6.89003C51.028 6.86796 51.0611 6.91762 51.05 7.03901L50.8845 10.8629C50.8845 11.0174 50.9121 11.1002 50.9673 11.1112C51.0556 11.1333 51.1438 11.0726 51.2321 10.9292C51.5191 10.5208 51.8391 10.0959 52.1923 9.65451C52.5564 9.20204 52.9427 8.77716 53.351 8.37987C53.7152 8.03776 54.0297 7.8336 54.2946 7.76738C54.5595 7.70116 54.7636 7.67357 54.9071 7.68461C55.0726 7.69565 55.2161 7.73427 55.3375 7.80049C55.4699 7.8667 55.6079 7.96051 55.7513 8.0819C56.0603 8.36883 56.1872 8.87097 56.1321 9.5883L56.0493 10.7471C56.0493 10.8022 56.0493 10.8519 56.0493 10.8961C56.0603 10.9402 56.0824 10.9623 56.1155 10.9623C56.1597 10.9623 56.1872 10.9512 56.1983 10.9292C56.2204 10.9071 56.2479 10.8685 56.281 10.8133C56.3583 10.6919 56.4631 10.5374 56.5956 10.3498C56.739 10.1511 56.888 9.94696 57.0425 9.73728C57.197 9.5276 57.3626 9.32344 57.5391 9.12479C57.7157 8.91511 57.8868 8.73854 58.0523 8.59507C58.1737 8.48471 58.3006 8.37435 58.433 8.26399C58.5765 8.15364 58.7255 8.05431 58.88 7.96602C59.0345 7.87774 59.1945 7.80601 59.3601 7.75083C59.5256 7.69565 59.6967 7.67357 59.8732 7.68461Z" fill="#1C1C1C"/>
<path d="M88.2961 12.9818C88.3182 12.8825 88.3513 12.8384 88.3954 12.8494C88.4396 12.8494 88.4727 12.8991 88.4948 12.9984C88.5831 13.3184 88.6493 13.6881 88.6934 14.1075C88.7376 14.5158 88.7596 14.9297 88.7596 15.349C88.7596 15.5697 88.7486 15.7739 88.7265 15.9615C88.7044 16.1381 88.6603 16.3257 88.5941 16.5243C88.4837 16.8775 88.3072 17.1589 88.0644 17.3686C87.8326 17.5672 87.5622 17.7217 87.2532 17.8321C86.9553 17.9314 86.6352 17.9976 86.2931 18.0307C85.951 18.0638 85.6199 18.0804 85.2999 18.0804C84.6267 18.0804 83.9921 17.9811 83.3962 17.7824C82.8003 17.5728 82.2374 17.2527 81.7077 16.8223C81.6636 16.7782 81.6194 16.7782 81.5753 16.8223C81.1559 17.2086 80.6648 17.5231 80.102 17.7659C79.5502 18.0087 78.9267 18.1301 78.2314 18.1301C77.812 18.1301 77.3651 18.0694 76.8905 17.948C76.416 17.8376 75.9801 17.5893 75.5828 17.2031C75.329 16.9492 75.1193 16.6623 74.9537 16.3423C74.7882 16.0112 74.7054 15.6304 74.7054 15.2C74.7054 14.7255 74.7772 14.2675 74.9206 13.8261C75.0751 13.3736 75.2959 12.9763 75.5828 12.6342C75.8697 12.2811 76.2229 11.9996 76.6422 11.79C77.0616 11.5803 77.5472 11.4754 78.099 11.4754C78.5956 11.4754 79.0867 11.5968 79.5723 11.8396C80.0578 12.0714 80.5876 12.4742 81.1614 13.048C81.2387 13.1253 81.2939 13.0977 81.327 12.9653C81.3601 12.7777 81.3766 12.6121 81.3766 12.4687C81.3877 12.3142 81.3821 12.1541 81.3601 11.9886C81.349 11.9114 81.327 11.7955 81.2939 11.641C81.2607 11.4754 81.1945 11.2989 81.0952 11.1112C80.9959 10.9126 80.8579 10.714 80.6814 10.5153C80.5048 10.3167 80.2786 10.1401 80.0027 9.98559C79.8482 9.8973 79.6385 9.82005 79.3736 9.75384C79.1088 9.68762 78.8163 9.65451 78.4963 9.65451C77.8451 9.65451 77.2878 9.77591 76.8243 10.0187C76.3608 10.2505 75.8973 10.5705 75.4338 10.9788C75.3566 11.0561 75.3179 11.034 75.3179 10.9126C75.329 10.7471 75.34 10.5595 75.351 10.3498C75.3731 10.1291 75.4117 9.91386 75.4669 9.70418C75.5221 9.48346 75.5993 9.27378 75.6987 9.07513C75.798 8.87649 75.9304 8.71095 76.096 8.57852C76.5595 8.22537 77.0892 7.9881 77.6851 7.8667C78.2921 7.74531 78.8825 7.68461 79.4564 7.68461C80.2289 7.68461 80.9573 7.84463 81.6415 8.16467C82.3257 8.47368 82.883 8.97581 83.3134 9.67107C83.4679 9.92489 83.5948 10.2284 83.6942 10.5815C83.7935 10.9347 83.8431 11.3154 83.8431 11.7237C83.8431 12.1762 83.799 12.6287 83.7107 13.0812C83.6224 13.5226 83.4845 13.9751 83.2969 14.4386C83.2638 14.5158 83.2803 14.5655 83.3465 14.5875C83.6997 14.7641 84.0915 14.9076 84.5218 15.0179C84.9633 15.1173 85.3661 15.1669 85.7303 15.1669C85.9068 15.1669 86.0945 15.1614 86.2931 15.1504C86.4918 15.1283 86.6794 15.0897 86.8559 15.0345C87.0435 14.9793 87.2146 14.9021 87.3691 14.8027C87.5236 14.6924 87.656 14.5544 87.7664 14.3889C87.8988 14.1903 88.0037 13.964 88.0809 13.7102C88.1692 13.4453 88.2409 13.2025 88.2961 12.9818ZM80.0689 15.349C80.113 15.3049 80.113 15.2552 80.0689 15.2C79.5943 14.7255 79.1584 14.3724 78.7611 14.1406C78.3638 13.8978 77.9996 13.7654 77.6686 13.7433C77.492 13.7323 77.3154 13.7433 77.1389 13.7764C76.9623 13.8095 76.8023 13.8702 76.6588 13.9585C76.5264 14.0358 76.416 14.1461 76.3277 14.2896C76.2394 14.422 76.1953 14.5875 76.1953 14.7862C76.1953 15.0069 76.267 15.1945 76.4105 15.349C76.5539 15.5035 76.7305 15.6249 76.9402 15.7132C77.1499 15.8015 77.3651 15.8677 77.5858 15.9119C77.8176 15.945 78.0162 15.9615 78.1817 15.9615C78.5238 15.9615 78.8494 15.9174 79.1584 15.8291C79.4785 15.7298 79.7819 15.5697 80.0689 15.349Z" fill="#1C1C1C"/>
<path d="M104.006 18.0804C103.476 18.0804 102.979 18.0307 102.516 17.9314C102.063 17.8321 101.65 17.7107 101.274 17.5672C100.899 17.4127 100.574 17.2472 100.298 17.0706C100.022 16.894 99.8121 16.7285 99.6686 16.574C99.1168 16.0222 98.7361 15.4318 98.5264 14.8027C98.3277 14.1737 98.2229 13.5722 98.2119 12.9984C98.2119 12.1928 98.3443 11.4644 98.6091 10.8133C98.874 10.1622 99.2437 9.60485 99.7182 9.14135C100.204 8.67784 100.783 8.31917 101.456 8.06535C102.13 7.81152 102.875 7.68461 103.691 7.68461C104.342 7.68461 104.922 7.7729 105.429 7.94947C105.937 8.11501 106.34 8.36884 106.638 8.71095C106.715 8.7882 106.776 8.89304 106.82 9.02547C106.875 9.1579 106.875 9.33447 106.82 9.55519L106.423 11.343C106.4 11.4092 106.367 11.4423 106.323 11.4423C106.29 11.4423 106.263 11.4092 106.24 11.343C106.086 10.7912 105.805 10.3663 105.396 10.0684C104.999 9.77039 104.513 9.62141 103.939 9.62141C102.703 9.62141 101.865 10.1125 101.423 11.0947C101.269 11.4258 101.192 11.7955 101.192 12.2038C101.192 12.5459 101.241 12.8494 101.341 13.1143C101.451 13.4012 101.6 13.6605 101.787 13.8923C101.975 14.124 102.218 14.3227 102.516 14.4882C102.825 14.6538 103.189 14.7862 103.608 14.8855C104.028 14.9738 104.524 15.0179 105.098 15.0179C105.462 15.0179 105.887 14.9904 106.373 14.9352C106.858 14.869 107.366 14.7696 107.896 14.6372C108.238 14.56 108.58 14.4551 108.922 14.3227C109.264 14.1903 109.595 14.0358 109.915 13.8592C110.235 13.6716 110.533 13.4619 110.809 13.2301C111.085 12.9873 111.334 12.7225 111.554 12.4356C111.654 12.3031 111.731 12.2645 111.786 12.3197C111.841 12.3638 111.858 12.4245 111.836 12.5018C111.769 12.888 111.654 13.2964 111.488 13.7268C111.322 14.1461 111.118 14.56 110.876 14.9683C110.633 15.3656 110.351 15.7463 110.031 16.1105C109.711 16.4636 109.358 16.7671 108.972 17.021C108.575 17.2637 108.172 17.4569 107.763 17.6003C107.355 17.7438 106.941 17.8487 106.522 17.9149C106.103 17.9921 105.683 18.0363 105.264 18.0473C104.844 18.0694 104.425 18.0804 104.006 18.0804Z" fill="#1C1C1C"/>
<path d="M117.977 15.349C118.021 15.3049 118.021 15.2552 117.977 15.2C117.503 14.7255 117.067 14.3724 116.669 14.1406C116.272 13.8978 115.908 13.7654 115.577 13.7433C115.4 13.7323 115.224 13.7433 115.047 13.7764C114.871 13.8095 114.71 13.8702 114.567 13.9585C114.435 14.0358 114.324 14.1461 114.236 14.2896C114.148 14.422 114.104 14.5875 114.104 14.7862C114.104 15.0069 114.175 15.1945 114.319 15.349C114.462 15.5035 114.639 15.6249 114.848 15.7132C115.058 15.8015 115.273 15.8677 115.494 15.9119C115.726 15.945 115.924 15.9615 116.09 15.9615C116.432 15.9615 116.758 15.9174 117.067 15.8291C117.387 15.7298 117.69 15.5697 117.977 15.349ZM125.526 18.2128C125.051 18.2128 124.571 18.2073 124.085 18.1963C123.6 18.1963 123.12 18.1632 122.645 18.097C122.182 18.0418 121.729 17.948 121.288 17.8155C120.857 17.6721 120.455 17.4679 120.079 17.2031C119.914 17.0927 119.765 16.9713 119.632 16.8389C119.577 16.7947 119.528 16.7947 119.483 16.8389C119.064 17.2251 118.573 17.5396 118.01 17.7824C117.458 18.0142 116.835 18.1301 116.14 18.1301C115.72 18.1301 115.273 18.0694 114.799 17.948C114.324 17.8376 113.888 17.5893 113.491 17.2031C113.237 16.9492 113.028 16.6623 112.862 16.3423C112.696 16.0112 112.614 15.6304 112.614 15.2C112.614 14.7255 112.685 14.2675 112.829 13.8261C112.983 13.3736 113.204 12.9763 113.491 12.6342C113.778 12.2811 114.131 11.9996 114.55 11.79C114.97 11.5803 115.455 11.4754 116.007 11.4754C116.25 11.4754 116.487 11.503 116.719 11.5582C116.951 11.6023 117.188 11.6851 117.431 11.8065C117.674 11.9169 117.927 12.0769 118.192 12.2866C118.457 12.4852 118.75 12.739 119.07 13.048C119.147 13.1253 119.202 13.0977 119.235 12.9653C119.268 12.7777 119.285 12.6121 119.285 12.4687C119.296 12.3142 119.29 12.1541 119.268 11.9886C119.257 11.9114 119.235 11.7955 119.202 11.641C119.169 11.4754 119.103 11.2989 119.003 11.1112C118.904 10.9126 118.766 10.714 118.59 10.5153C118.413 10.3167 118.187 10.1401 117.911 9.98559C117.756 9.8973 117.547 9.82005 117.282 9.75384C117.017 9.68762 116.725 9.65451 116.404 9.65451C115.753 9.65451 115.196 9.77591 114.733 10.0187C114.269 10.2505 113.806 10.5705 113.342 10.9788C113.265 11.0561 113.226 11.034 113.226 10.9126C113.237 10.7471 113.248 10.5595 113.259 10.3498C113.281 10.1291 113.32 9.91386 113.375 9.70418C113.43 9.48346 113.508 9.27378 113.607 9.07513C113.706 8.87649 113.839 8.71095 114.004 8.57852C114.468 8.22537 114.997 7.9881 115.593 7.8667C116.2 7.74531 116.791 7.68461 117.365 7.68461C118.137 7.68461 118.865 7.84463 119.55 8.16467C120.234 8.47368 120.791 8.97581 121.222 9.67107C121.376 9.92489 121.503 10.2284 121.602 10.5815C121.702 10.9347 121.751 11.3154 121.751 11.7237C121.751 12.0879 121.718 12.4852 121.652 12.9156C121.597 13.346 121.475 13.793 121.288 14.2565C121.244 14.3668 121.255 14.4386 121.321 14.4717C121.575 14.6262 121.884 14.7531 122.248 14.8524C122.623 14.9407 122.993 15.0124 123.357 15.0676C123.732 15.1118 124.085 15.1449 124.417 15.1669C124.759 15.178 125.024 15.1835 125.211 15.1835H128.307C129.046 15.1835 129.653 15.04 130.128 14.7531C130.613 14.4551 131.01 14.0965 131.319 13.6771C131.628 13.2467 131.871 12.7887 132.048 12.3031C132.224 11.8175 132.373 11.3761 132.495 10.9788C132.693 10.3498 132.881 9.84764 133.058 9.47242C133.245 9.08617 133.505 8.74957 133.836 8.46264C133.957 8.35228 134.101 8.25848 134.266 8.18122C134.432 8.09294 134.603 8.0212 134.779 7.96602C134.967 7.89981 135.154 7.85567 135.342 7.83359C135.53 7.80049 135.712 7.78945 135.888 7.80049C136.054 7.81152 136.208 7.85567 136.352 7.93292C136.495 8.01017 136.639 8.10949 136.782 8.23089C137.091 8.51782 137.218 9.01995 137.163 9.73728L137.08 10.8961C137.08 10.9512 137.08 11.0009 137.08 11.045C137.091 11.0892 137.113 11.1112 137.146 11.1112C137.191 11.1112 137.218 11.1002 137.229 11.0781C137.251 11.0561 137.279 11.0174 137.312 10.9623C137.389 10.8409 137.5 10.6919 137.643 10.5153C137.786 10.3387 137.941 10.1566 138.107 9.96904C138.272 9.77039 138.443 9.57726 138.62 9.38965C138.807 9.20204 138.984 9.03099 139.149 8.87648C139.392 8.65577 139.657 8.44609 139.944 8.24744C140.231 8.04879 140.551 7.91085 140.904 7.83359C141.07 7.80049 141.268 7.80049 141.5 7.83359C141.743 7.85567 141.991 7.97706 142.245 8.19778C142.422 8.35228 142.532 8.55644 142.576 8.81027C142.631 9.05306 142.648 9.35655 142.626 9.72073C142.615 9.97455 142.604 10.2229 142.593 10.4657C142.582 10.6974 142.571 10.9402 142.56 11.194C142.548 11.4368 142.532 11.6962 142.51 11.972C142.499 12.2369 142.482 12.5349 142.46 12.866C142.438 13.2301 142.455 13.5447 142.51 13.8095C142.576 14.0633 142.72 14.262 142.94 14.4055C143.183 14.5489 143.514 14.6648 143.933 14.7531C144.353 14.8303 144.789 14.891 145.241 14.9352C145.705 14.9793 146.152 15.0069 146.582 15.0179C147.012 15.029 147.366 15.0345 147.642 15.0345C148.613 15.0345 149.457 15.0235 150.174 15.0014C150.892 14.9793 151.504 14.9407 152.012 14.8855C152.519 14.8303 152.928 14.7641 153.237 14.6869C153.546 14.5986 153.783 14.4882 153.949 14.3558C154.136 14.2123 154.28 14.0247 154.379 13.793C154.489 13.5502 154.578 13.2688 154.644 12.9487C154.699 12.7501 154.749 12.6397 154.793 12.6176C154.848 12.5956 154.903 12.7115 154.958 12.9653C155.036 13.3074 155.107 13.6881 155.174 14.1075C155.24 14.5158 155.273 14.9131 155.273 15.2994C155.273 15.7187 155.223 16.0774 155.124 16.3754C155.047 16.5961 154.947 16.8168 154.826 17.0375C154.704 17.2582 154.528 17.4569 154.296 17.6335C154.075 17.799 153.777 17.9314 153.402 18.0307C153.038 18.1411 152.575 18.1963 152.012 18.1963L147.327 18.1466C147.007 18.1466 146.577 18.1466 146.036 18.1466C145.495 18.1466 144.932 18.1301 144.347 18.097C143.773 18.0638 143.216 18.0032 142.675 17.9149C142.146 17.8376 141.726 17.7052 141.417 17.5176C141.108 17.341 140.86 17.1148 140.672 16.8389C140.485 16.563 140.336 16.265 140.225 15.945C140.126 15.6139 140.06 15.2773 140.027 14.9352C139.994 14.582 139.983 14.2399 139.994 13.9088C140.005 13.6219 140.021 13.2632 140.043 12.8328C140.065 12.3914 140.115 11.8231 140.192 11.1278C140.203 11.0285 140.187 10.9347 140.143 10.8464C140.11 10.7581 140.021 10.714 139.878 10.714C139.767 10.714 139.646 10.7636 139.514 10.8629C139.381 10.9623 139.287 11.045 139.232 11.1112C138.879 11.4644 138.57 11.8672 138.305 12.3197C138.051 12.7721 137.831 13.2577 137.643 13.7764C137.455 14.2841 137.295 14.8138 137.163 15.3656C137.042 15.9174 136.931 16.4636 136.832 17.0044C136.777 17.3355 136.672 17.6224 136.517 17.8652C136.374 18.108 136.137 18.2294 135.806 18.2294C135.486 18.2294 135.237 18.1466 135.061 17.9811C134.884 17.8155 134.79 17.5783 134.779 17.2693C134.768 16.8168 134.774 16.3533 134.796 15.8787C134.818 15.3932 134.851 14.8855 134.895 14.3558C134.95 13.815 135.016 13.2412 135.094 12.6342C135.182 12.0272 135.292 11.3651 135.425 10.6477C135.436 10.6036 135.441 10.5484 135.441 10.4822C135.452 10.405 135.447 10.3332 135.425 10.267C135.414 10.2008 135.375 10.1456 135.309 10.1015C135.254 10.0573 135.165 10.0353 135.044 10.0353C134.934 10.0353 134.823 10.0959 134.713 10.2173C134.603 10.3277 134.52 10.4877 134.465 10.6974C134.343 11.1388 134.2 11.6299 134.034 12.1707C133.869 12.7115 133.67 13.2632 133.438 13.8261C133.218 14.3779 132.958 14.9186 132.66 15.4483C132.373 15.9781 132.037 16.4471 131.651 16.8554C131.275 17.2637 130.85 17.5893 130.376 17.8321C129.901 18.0859 129.372 18.2128 128.787 18.2128H125.526Z" fill="#1C1C1C"/>
<path d="M161.414 15.349C161.458 15.3049 161.458 15.2552 161.414 15.2C160.94 14.7255 160.504 14.3724 160.107 14.1406C159.709 13.8978 159.345 13.7654 159.014 13.7433C158.837 13.7323 158.661 13.7433 158.484 13.7764C158.308 13.8095 158.148 13.8702 158.004 13.9585C157.872 14.0358 157.761 14.1461 157.673 14.2896C157.585 14.422 157.541 14.5875 157.541 14.7862C157.541 15.0069 157.612 15.1945 157.756 15.349C157.899 15.5035 158.076 15.6249 158.286 15.7132C158.495 15.8015 158.711 15.8677 158.931 15.9119C159.163 15.945 159.362 15.9615 159.527 15.9615C159.869 15.9615 160.195 15.9174 160.504 15.8291C160.824 15.7298 161.127 15.5697 161.414 15.349ZM166.645 18.097C165.299 18.097 164.102 17.6721 163.053 16.8223C163.009 16.7782 162.965 16.7782 162.921 16.8223C162.501 17.2086 162.01 17.5231 161.447 17.7659C160.896 18.0087 160.272 18.1301 159.577 18.1301C159.157 18.1301 158.711 18.0694 158.236 17.948C157.761 17.8376 157.326 17.5893 156.928 17.2031C156.674 16.9492 156.465 16.6623 156.299 16.3423C156.134 16.0112 156.051 15.6304 156.051 15.2C156.051 14.7255 156.123 14.2675 156.266 13.8261C156.421 13.3736 156.641 12.9763 156.928 12.6342C157.215 12.2811 157.568 11.9996 157.988 11.79C158.407 11.5803 158.893 11.4754 159.444 11.4754C159.941 11.4754 160.432 11.5968 160.918 11.8396C161.403 12.0714 161.933 12.4742 162.507 13.048C162.584 13.1253 162.639 13.0977 162.672 12.9653C162.705 12.7777 162.722 12.6121 162.722 12.4687C162.733 12.3142 162.728 12.1541 162.705 11.9886C162.694 11.9114 162.672 11.7955 162.639 11.641C162.606 11.4754 162.54 11.2989 162.441 11.1112C162.341 10.9126 162.203 10.714 162.027 10.5153C161.85 10.3167 161.624 10.1401 161.348 9.98559C161.194 9.8973 160.984 9.82005 160.719 9.75384C160.454 9.68762 160.162 9.65451 159.842 9.65451C159.191 9.65451 158.633 9.77591 158.17 10.0187C157.706 10.2505 157.243 10.5705 156.779 10.9788C156.702 11.0561 156.663 11.034 156.663 10.9126C156.674 10.7471 156.685 10.5595 156.696 10.3498C156.719 10.1291 156.757 9.91386 156.812 9.70418C156.868 9.48346 156.945 9.27378 157.044 9.07513C157.143 8.87649 157.276 8.71095 157.441 8.57852C157.905 8.22537 158.435 7.9881 159.031 7.8667C159.638 7.74531 160.228 7.68461 160.802 7.68461C161.574 7.68461 162.303 7.84463 162.987 8.16467C163.671 8.47368 164.228 8.97581 164.659 9.67107C164.813 9.92489 164.94 10.2284 165.04 10.5815C165.139 10.9347 165.189 11.3154 165.189 11.7237C165.189 12.1762 165.144 12.6287 165.056 13.0812C164.968 13.5226 164.83 13.9751 164.642 14.4386C164.609 14.5158 164.626 14.5655 164.692 14.5875C165.31 14.8745 165.862 15.0455 166.347 15.1007C166.833 15.1559 167.258 15.1835 167.622 15.1835H168.715C169.145 15.1614 169.526 15.0952 169.857 14.9848C170.199 14.8634 170.502 14.7145 170.767 14.5379C171.032 14.3503 171.264 14.1406 171.462 13.9088C171.672 13.6661 171.854 13.4177 172.009 13.1639C172.053 13.0867 172.053 13.048 172.009 13.048C171.976 13.048 171.909 13.0591 171.81 13.0812C171.424 13.1694 171.049 13.1584 170.684 13.048C170.331 12.9377 170.011 12.7446 169.724 12.4687C169.448 12.2148 169.233 11.9058 169.079 11.5416C168.935 11.1664 168.852 10.7636 168.83 10.3332C168.808 9.88075 168.852 9.46139 168.963 9.07513C169.084 8.67784 169.277 8.31365 169.542 7.98258C169.829 7.62943 170.182 7.35905 170.602 7.17144C171.021 6.9728 171.462 6.86244 171.926 6.84037C172.389 6.80726 172.853 6.86244 173.316 7.0059C173.791 7.13833 174.221 7.35353 174.608 7.6515C174.939 7.91636 175.182 8.21433 175.336 8.54541C175.502 8.86545 175.601 9.2186 175.634 9.60485C175.678 9.99111 175.673 10.405 175.617 10.8464C175.562 11.2878 175.491 11.7568 175.402 12.2535C175.347 12.5294 175.353 12.7832 175.419 13.0149C175.485 13.2357 175.579 13.4343 175.7 13.6109C175.822 13.7764 175.954 13.9254 176.098 14.0578C176.252 14.1792 176.384 14.273 176.495 14.3392C176.738 14.4827 177.052 14.5931 177.438 14.6703C177.836 14.7476 178.244 14.8083 178.663 14.8524C179.083 14.8855 179.491 14.9076 179.888 14.9186C180.297 14.9186 180.639 14.9186 180.915 14.9186C181.886 14.9186 182.73 14.9076 183.447 14.8855C184.165 14.8634 184.777 14.8248 185.285 14.7696C185.793 14.7145 186.201 14.6482 186.51 14.571C186.819 14.4827 187.056 14.3723 187.222 14.2399C187.409 14.0965 187.553 13.9088 187.652 13.6771C187.762 13.4343 187.851 13.1529 187.917 12.8328C187.972 12.6342 188.022 12.5238 188.066 12.5018C188.121 12.4797 188.176 12.5956 188.231 12.8494C188.309 13.1915 188.38 13.5722 188.447 13.9916C188.513 14.3999 188.546 14.7972 188.546 15.1835C188.546 15.6028 188.496 15.9615 188.397 16.2595C188.32 16.4802 188.22 16.7009 188.099 16.9216C187.978 17.1424 187.801 17.341 187.569 17.5176C187.349 17.6831 187.051 17.8155 186.675 17.9149C186.311 18.0252 185.848 18.0804 185.285 18.0804L180.948 18.0307C180.727 18.0307 180.451 18.0307 180.12 18.0307C179.8 18.0307 179.452 18.0252 179.077 18.0142C178.702 18.0142 178.316 18.0032 177.918 17.9811C177.521 17.959 177.14 17.9259 176.776 17.8818C176.412 17.8376 176.075 17.7769 175.766 17.6997C175.468 17.6224 175.226 17.5231 175.038 17.4017C174.806 17.2582 174.608 17.0927 174.442 16.9051C174.277 16.7064 174.139 16.5023 174.028 16.2926C173.929 16.0719 173.846 15.8512 173.78 15.6304C173.725 15.3987 173.686 15.1725 173.664 14.9517C173.653 14.8634 173.637 14.7862 173.614 14.72C173.603 14.6427 173.565 14.6096 173.499 14.6207C173.443 14.6317 173.399 14.6648 173.366 14.72C173.344 14.7752 173.316 14.8414 173.283 14.9186C173.063 15.3601 172.814 15.7739 172.538 16.1602C172.263 16.5464 171.954 16.883 171.611 17.1699C171.28 17.4569 170.911 17.6831 170.502 17.8487C170.105 18.0142 169.664 18.097 169.178 18.097H166.645ZM173.548 10.5981C173.714 10.2118 173.736 9.88075 173.614 9.60485C173.493 9.32896 173.316 9.11376 173.085 8.95925C172.698 8.70543 172.334 8.56196 171.992 8.52885C171.65 8.48471 171.347 8.62266 171.082 8.9427C170.828 9.26274 170.695 9.60485 170.684 9.96904C170.684 10.3332 170.828 10.6643 171.115 10.9623C171.325 11.1278 171.551 11.2437 171.794 11.3099C172.036 11.3761 172.268 11.3927 172.489 11.3596C172.721 11.3264 172.93 11.2492 173.118 11.1278C173.305 10.9954 173.449 10.8188 173.548 10.5981Z" fill="#1C1C1C"/>
<path d="M56.1983 49.7025C55.8304 49.7025 55.4037 49.6142 54.9181 49.4377C54.4473 49.2464 53.9985 48.9374 53.5717 48.5106C53.5129 48.4371 53.4614 48.415 53.4172 48.4444C53.3731 48.4591 53.351 48.5106 53.351 48.5989C53.351 49.1728 53.3437 49.6363 53.329 49.9895C53.329 50.3426 53.3216 50.6737 53.3069 50.9827C53.3069 51.277 53.2995 51.6007 53.2848 51.9538C53.2848 52.307 53.2775 52.7779 53.2627 53.3664C53.248 53.7343 53.1377 54.0065 52.9317 54.1831C52.7404 54.3744 52.4976 54.47 52.2033 54.47C51.9826 54.47 51.7251 54.4774 51.4308 54.4921C51.1365 54.5068 50.9084 54.5142 50.7466 54.5142C50.4376 54.5142 50.18 54.4185 49.974 54.2272C49.768 54.0507 49.6577 53.7784 49.643 53.4106L49.5768 51.4241C49.5768 51.2623 49.5105 51.2255 49.3781 51.3138C48.8778 51.6522 48.3702 51.8729 47.8552 51.9759C47.3549 52.0789 46.8766 52.1157 46.4205 52.0863C45.9643 52.0421 45.5376 51.9612 45.1403 51.8435C44.7578 51.7111 44.434 51.5786 44.1692 51.4462C43.9632 51.3432 43.8749 51.2623 43.9043 51.2034C43.9337 51.1298 44.0294 51.0563 44.1912 50.9827C44.4267 50.8944 44.6915 50.784 44.9858 50.6516C45.2801 50.5045 45.5818 50.3352 45.8908 50.144C46.2145 49.9527 46.5235 49.7467 46.8178 49.5259C47.1268 49.2905 47.399 49.0404 47.6344 48.7755C47.9434 48.4224 48.1936 48.106 48.3849 47.8264C48.5762 47.5468 48.7233 47.2893 48.8263 47.0539C48.944 46.8038 49.0176 46.5683 49.047 46.3476C49.0912 46.1269 49.1206 45.8915 49.1353 45.6413C49.15 45.4206 49.15 45.1557 49.1353 44.8467C49.1206 44.523 49.1059 44.2434 49.0912 44.008C49.0765 43.6696 49.1427 43.3753 49.2898 43.1251C49.437 42.8603 49.7018 42.566 50.0844 42.2423L53.2407 39.6378C53.2995 39.5937 53.3731 39.5642 53.4614 39.5495C53.5497 39.5201 53.5938 39.5863 53.5938 39.7482L53.5497 44.0963C53.5497 44.2876 53.5865 44.5083 53.66 44.7585C53.7336 45.0086 53.866 45.244 54.0573 45.4647C54.2633 45.6855 54.5429 45.8841 54.896 46.0607C55.2639 46.2225 55.7348 46.3182 56.3086 46.3476C56.6029 46.3623 56.8972 46.3255 57.1915 46.2373C57.4858 46.1343 57.7433 45.9871 57.964 45.7958C58.1995 45.5898 58.3907 45.3397 58.5379 45.0454C58.685 44.7364 58.7586 44.3906 58.7586 44.008C58.7439 43.6696 58.8101 43.3753 58.9572 43.1251C59.1044 42.8603 59.3693 42.566 59.7518 42.2423L62.9081 39.6378C62.9669 39.5937 63.0405 39.5642 63.1288 39.5495C63.2171 39.5201 63.2612 39.5863 63.2612 39.7482L63.2171 42.6396C63.2024 43.3311 63.1803 44.0816 63.1509 44.8909C63.1215 45.7002 63.1067 46.5463 63.1067 47.4291C63.1067 47.9147 63.1509 48.3194 63.2392 48.6431C63.3422 48.9668 63.5408 49.2243 63.8351 49.4156C64.1588 49.6069 64.5561 49.7614 65.027 49.8791C65.4978 49.9821 65.9834 50.063 66.4837 50.1219C66.984 50.1807 67.4769 50.2175 67.9625 50.2322C68.4481 50.247 68.8748 50.2543 69.2427 50.2543C70.5376 50.2543 71.6632 50.2396 72.6197 50.2102C73.5761 50.1807 74.3928 50.1292 75.0696 50.0557C75.7465 49.9821 76.2909 49.8938 76.7029 49.7908C77.1149 49.6731 77.4313 49.5259 77.652 49.3494C77.9022 49.1581 78.0935 48.9079 78.2259 48.5989C78.373 48.2752 78.4907 47.9 78.579 47.4733C78.6526 47.2084 78.7188 47.0613 78.7777 47.0318C78.8512 47.0024 78.9248 47.1569 78.9984 47.4953C79.1014 47.9515 79.197 48.4591 79.2853 49.0183C79.3736 49.5627 79.4178 50.0925 79.4178 50.6075C79.4178 51.1666 79.3515 51.6448 79.2191 52.0421C79.1161 52.3364 78.9837 52.6307 78.8218 52.925C78.66 53.2193 78.4245 53.4841 78.1155 53.7196C77.8212 53.9403 77.4239 54.1169 76.9237 54.2493C76.4381 54.3964 75.8201 54.47 75.0696 54.47L68.8233 54.4038C68.529 54.4038 68.1612 54.4038 67.7197 54.4038C67.293 54.4038 66.8295 54.3964 66.3292 54.3817C65.8289 54.3817 65.3139 54.367 64.7842 54.3376C64.2545 54.3082 63.7468 54.264 63.2612 54.2052C62.7757 54.1463 62.3269 54.0654 61.9149 53.9624C61.5176 53.8594 61.1939 53.7269 60.9437 53.5651C60.4581 53.2561 60.0829 52.8882 59.818 52.4615C59.5532 52.0201 59.3619 51.5713 59.2442 51.1151C59.1265 50.6442 59.0602 50.1881 59.0455 49.7467C59.0308 49.3052 59.0308 48.9227 59.0455 48.5989C59.0455 48.5106 59.0235 48.4591 58.9793 48.4444C58.9352 48.415 58.8837 48.4371 58.8248 48.5106C58.4128 48.9374 57.964 49.2464 57.4784 49.4377C56.9929 49.6142 56.5661 49.7025 56.1983 49.7025Z" fill="#1C1C1C"/>
<path d="M98.3553 47.6719C98.3847 47.5395 98.4289 47.4806 98.4877 47.4953C98.5466 47.4953 98.5907 47.5616 98.6202 47.694C98.7379 48.1207 98.8262 48.6137 98.885 49.1728C98.9439 49.7172 98.9733 50.269 98.9733 50.8282C98.9733 51.1225 98.9586 51.3947 98.9292 51.6448C98.8998 51.8803 98.8409 52.1304 98.7526 52.3953C98.6055 52.8661 98.37 53.2414 98.0463 53.5209C97.7373 53.7858 97.3768 53.9918 96.9648 54.1389C96.5675 54.2714 96.1408 54.3597 95.6846 54.4038C95.2285 54.4479 94.7871 54.47 94.3603 54.47C93.4627 54.47 92.6167 54.3376 91.8221 54.0727C91.0275 53.7932 90.2771 53.3664 89.5708 52.7926C89.5119 52.7337 89.453 52.7337 89.3942 52.7926C88.835 53.3076 88.1802 53.7269 87.4298 54.0507C86.6941 54.3744 85.8627 54.5362 84.9357 54.5362C84.3765 54.5362 83.7806 54.4553 83.1479 54.2934C82.5152 54.1463 81.9339 53.8152 81.4042 53.3002C81.0658 52.9618 80.7862 52.5792 80.5655 52.1525C80.3448 51.7111 80.2344 51.2034 80.2344 50.6295C80.2344 49.9968 80.3301 49.3862 80.5213 48.7976C80.7274 48.1943 81.0216 47.6646 81.4042 47.2084C81.7868 46.7376 82.2577 46.3623 82.8168 46.0828C83.376 45.8032 84.0234 45.6634 84.7591 45.6634C85.4213 45.6634 86.0761 45.8253 86.7235 46.149C87.3709 46.458 88.0772 46.9951 88.8424 47.7602C88.9454 47.8632 89.019 47.8264 89.0631 47.6498C89.1073 47.3997 89.1293 47.179 89.1293 46.9877C89.144 46.7817 89.1367 46.5683 89.1073 46.3476C89.0925 46.2446 89.0631 46.0901 89.019 45.8841C88.9748 45.6634 88.8865 45.428 88.7541 45.1778C88.6217 44.913 88.4377 44.6481 88.2023 44.3832C87.9669 44.1184 87.6652 43.8829 87.2974 43.6769C87.0914 43.5592 86.8118 43.4562 86.4586 43.3679C86.1055 43.2796 85.7156 43.2355 85.2888 43.2355C84.4207 43.2355 83.6776 43.3974 83.0596 43.7211C82.4416 44.0301 81.8236 44.4568 81.2056 45.0012C81.1026 45.1042 81.0511 45.0748 81.0511 44.913C81.0658 44.6922 81.0805 44.4421 81.0952 44.1625C81.1246 43.8682 81.1761 43.5813 81.2497 43.3017C81.3233 43.0074 81.4263 42.7279 81.5587 42.463C81.6911 42.1981 81.8677 41.9774 82.0884 41.8008C82.7064 41.33 83.4127 41.0136 84.2073 40.8518C85.0166 40.6899 85.8039 40.609 86.569 40.609C87.599 40.609 88.5702 40.8223 89.4825 41.249C90.3948 41.6611 91.1379 42.3306 91.7117 43.2576C91.9177 43.596 92.0869 44.0007 92.2194 44.4715C92.3518 44.9424 92.418 45.45 92.418 45.9945C92.418 46.5978 92.3592 47.2011 92.2414 47.8044C92.1237 48.3929 91.9398 48.9962 91.6896 49.6142C91.6455 49.7172 91.6676 49.7835 91.7559 49.8129C92.2267 50.0483 92.7491 50.2396 93.323 50.3867C93.9115 50.5192 94.4486 50.5854 94.9342 50.5854C95.1696 50.5854 95.4198 50.578 95.6846 50.5633C95.9495 50.5339 96.1996 50.4824 96.4351 50.4088C96.6852 50.3352 96.9133 50.2322 97.1193 50.0998C97.3253 49.9527 97.5019 49.7687 97.649 49.548C97.8256 49.2832 97.9654 48.9815 98.0684 48.6431C98.1861 48.2899 98.2817 47.9662 98.3553 47.6719ZM87.3857 50.8282C87.4445 50.7693 87.4445 50.7031 87.3857 50.6295C86.7529 49.9968 86.1717 49.5259 85.642 49.2169C85.1123 48.8932 84.6267 48.7167 84.1853 48.6872C83.9498 48.6725 83.7144 48.6872 83.479 48.7314C83.2435 48.7755 83.0302 48.8564 82.8389 48.9742C82.6623 49.0772 82.5152 49.2243 82.3974 49.4156C82.2797 49.5922 82.2209 49.8129 82.2209 50.0777C82.2209 50.372 82.3165 50.6222 82.5078 50.8282C82.6991 51.0342 82.9345 51.196 83.2141 51.3138C83.4937 51.4315 83.7806 51.5198 84.0749 51.5786C84.3839 51.6228 84.6488 51.6448 84.8695 51.6448C85.3256 51.6448 85.7597 51.586 86.1717 51.4683C86.5984 51.3358 87.0031 51.1225 87.3857 50.8282Z" fill="#1C1C1C"/>
<path d="M126.85 49.9232C127.821 49.9085 128.785 49.7614 129.741 49.4818C130.698 49.2022 131.595 48.8049 132.434 48.2899C133.288 47.7602 134.067 47.1201 134.774 46.3697C135.48 45.6192 136.076 44.7658 136.562 43.8094C136.723 43.5004 136.856 43.3238 136.959 43.2796C137.077 43.2355 137.143 43.4489 137.157 43.9197C137.172 44.1552 137.172 44.4347 137.157 44.7585C137.157 45.0675 137.128 45.3985 137.069 45.7517C136.775 47.4291 136.253 48.8564 135.502 50.0336C134.766 51.2108 133.847 52.1672 132.743 52.9029C131.654 53.6239 130.418 54.1389 129.035 54.4479C127.652 54.7717 126.166 54.9115 124.577 54.8673C122.428 54.8232 120.56 54.4406 118.97 53.7196C117.396 52.9986 116.079 52.0495 115.019 50.8723C113.975 49.6952 113.195 48.3414 112.68 46.8111C112.165 45.2808 111.907 43.6843 111.907 42.0216C111.907 40.8297 112.018 39.6378 112.238 38.4459C112.459 37.2541 112.798 36.099 113.254 34.9807C113.71 33.8624 114.291 32.7956 114.997 31.7803C115.704 30.7502 116.55 29.8159 117.536 28.9772C118.963 27.7411 120.545 26.8509 122.281 26.3065C124.017 25.7473 125.982 25.4751 128.174 25.4898C129.072 25.4898 129.962 25.5487 130.845 25.6664C131.728 25.7841 132.53 26.0195 133.251 26.3727C133.972 26.7258 134.56 27.2261 135.016 27.8736C135.473 28.521 135.723 29.3744 135.767 30.4339C135.782 30.9047 135.715 31.3977 135.568 31.9127C135.436 32.4277 135.245 32.9501 134.994 33.4798C134.759 34.0095 134.472 34.5245 134.134 35.0248C133.81 35.5251 133.464 35.9813 133.096 36.3933C133.008 36.4963 132.934 36.5625 132.876 36.5919C132.831 36.6213 132.75 36.5919 132.633 36.5036L129.587 33.9433C129.396 33.7814 129.373 33.6269 129.521 33.4798C129.903 33.0972 130.286 32.6484 130.668 32.1334C131.066 31.6037 131.36 31.1181 131.551 30.6767C131.654 30.4412 131.676 30.25 131.617 30.1028C131.573 29.9557 131.448 29.8012 131.242 29.6393C130.86 29.3156 130.367 29.0802 129.763 28.933C129.175 28.7859 128.601 28.7123 128.042 28.7123C127.262 28.7123 126.453 28.8153 125.614 29.0213C124.775 29.2273 123.951 29.5289 123.142 29.9262C122.347 30.3088 121.597 30.787 120.891 31.3609C120.184 31.9348 119.581 32.5896 119.081 33.3253C118.242 34.5613 117.653 35.8267 117.315 37.1216C116.991 38.4018 116.844 39.6452 116.874 40.8518C116.888 42.2055 117.109 43.4489 117.536 44.5819C117.977 45.7002 118.61 46.664 119.434 47.4733C120.273 48.2826 121.31 48.9079 122.546 49.3494C123.782 49.7761 125.217 49.9674 126.85 49.9232Z" fill="#1C1C1C"/>
<path d="M142.124 46.5904C142.315 46.4727 142.411 46.5095 142.411 46.7008C142.411 47.2011 142.484 47.7013 142.631 48.2016C142.778 48.6872 143.006 49.1287 143.315 49.5259C143.639 49.9232 144.044 50.247 144.529 50.4971C145.015 50.7473 145.596 50.8723 146.273 50.8723C146.744 50.8723 147.185 50.8135 147.597 50.6958C148.009 50.5633 148.37 50.372 148.679 50.1219C148.988 49.857 149.231 49.5407 149.407 49.1728C149.584 48.8049 149.672 48.3856 149.672 47.9147C149.672 47.2084 149.532 46.5904 149.253 46.0607C148.988 45.531 148.613 45.0895 148.127 44.7364C147.656 44.3685 147.097 44.1037 146.45 43.9418C145.802 43.7652 145.103 43.6843 144.353 43.699C143.926 43.7137 143.47 43.7726 142.984 43.8756C142.499 43.9639 141.999 44.111 141.484 44.317C140.983 44.523 140.476 44.8026 139.961 45.1557C139.446 45.5089 138.945 45.943 138.46 46.458C138.298 46.6198 138.187 46.6934 138.129 46.6787C138.084 46.664 138.07 46.5683 138.084 46.3918C138.084 46.2593 138.099 46.1122 138.129 45.9503C138.173 45.7738 138.217 45.5972 138.261 45.4206C138.305 45.2293 138.357 45.0454 138.416 44.8688C138.474 44.6775 138.541 44.5157 138.614 44.3832C138.938 43.7064 139.328 43.1251 139.784 42.6396C140.24 42.154 140.755 41.7641 141.329 41.4698C141.903 41.1755 142.514 40.9621 143.161 40.8297C143.823 40.6825 144.515 40.609 145.236 40.609C146.295 40.609 147.266 40.7414 148.149 41.0063C149.032 41.2711 149.841 41.7126 150.577 42.3306C151.386 42.9927 152.041 43.8462 152.541 44.8909C153.056 45.9356 153.314 47.1054 153.314 48.4003C153.314 49.3567 153.145 50.2175 152.806 50.9827C152.468 51.7478 152.012 52.4026 151.438 52.9471C150.864 53.4768 150.202 53.8814 149.451 54.161C148.701 54.4553 147.921 54.6025 147.112 54.6025C146.685 54.6025 146.251 54.5657 145.81 54.4921C145.383 54.4185 144.971 54.3008 144.574 54.1389C144.176 53.9918 143.801 53.8152 143.448 53.6092C143.109 53.3885 142.823 53.131 142.587 52.8367C142.543 52.7779 142.491 52.7264 142.433 52.6822C142.388 52.6381 142.359 52.719 142.344 52.925C142.33 53.4106 142.308 53.9844 142.278 54.6466C142.263 55.3087 142.249 56.0003 142.234 56.7213C142.219 57.4571 142.205 58.2001 142.19 58.9506C142.175 59.701 142.168 60.4073 142.168 61.0695C142.168 61.7463 142.168 62.3496 142.168 62.8794C142.168 63.4238 142.175 63.8505 142.19 64.1595C142.205 64.4391 142.219 64.7113 142.234 64.9762C142.263 65.241 142.322 65.4838 142.411 65.7045C142.499 65.94 142.631 66.146 142.808 66.3226C142.999 66.4991 143.264 66.6316 143.602 66.7198C143.823 66.7787 144.081 66.8155 144.375 66.8302C144.684 66.8596 145.044 66.8449 145.456 66.7861C145.604 66.7566 145.685 66.7787 145.699 66.8523C145.714 66.9258 145.655 66.9994 145.523 67.073C145.096 67.3231 144.581 67.5365 143.978 67.7131C143.374 67.8896 142.697 67.9779 141.947 67.9779C141.432 67.9779 140.924 67.8455 140.424 67.5806C139.938 67.3305 139.504 66.97 139.122 66.4991C138.872 66.1901 138.688 65.8443 138.57 65.4617C138.467 65.0792 138.408 64.6966 138.393 64.314C138.379 63.9167 138.364 63.4017 138.349 62.769C138.349 62.1363 138.349 61.3417 138.349 60.3852C138.364 59.4435 138.386 58.3252 138.416 57.0303C138.46 55.7502 138.519 54.2567 138.592 52.5498C138.622 51.9759 138.644 51.402 138.658 50.8282C138.688 50.2543 138.702 49.6878 138.702 49.1287C138.702 48.9668 138.717 48.8344 138.747 48.7314C138.791 48.6284 138.894 48.5254 139.056 48.4224L142.124 46.5904Z" fill="#1C1C1C"/>
<path d="M166.491 44.8026C166.491 45.3617 166.388 45.9135 166.182 46.458C165.991 46.9877 165.682 47.4659 165.255 47.8926C164.931 48.2164 164.541 48.4665 164.085 48.6431C163.644 48.8197 163.165 48.9079 162.65 48.9079C161.606 48.9079 160.715 48.6504 159.98 48.1354C159.244 47.6204 158.722 46.8773 158.413 45.9062C158.339 45.7149 158.251 45.7149 158.148 45.9062C157.956 46.2446 157.839 46.5389 157.795 46.7891C157.765 47.0392 157.743 47.2746 157.728 47.4953C157.699 48.1281 157.883 48.6725 158.28 49.1287C158.692 49.5701 159.251 49.9085 159.958 50.144C160.34 50.2617 160.767 50.35 161.238 50.4088C161.723 50.453 162.238 50.475 162.783 50.475C163.577 50.475 164.394 50.4309 165.233 50.3426C166.086 50.2396 166.888 50.0925 167.639 49.9012C168.095 49.7982 168.551 49.6584 169.007 49.4818C169.463 49.2905 169.905 49.0772 170.331 48.8417C170.758 48.5916 171.155 48.312 171.523 48.003C171.891 47.6793 172.222 47.3261 172.516 46.9436C172.649 46.767 172.752 46.7155 172.825 46.7891C172.899 46.8479 172.921 46.9288 172.892 47.0318C172.803 47.5468 172.649 48.0913 172.428 48.6651C172.222 49.239 171.957 49.7982 171.634 50.3426C171.31 50.887 170.935 51.402 170.508 51.8876C170.081 52.3732 169.603 52.7779 169.073 53.1016C168.558 53.44 168.021 53.7049 167.462 53.8962C166.918 54.0727 166.366 54.2052 165.807 54.2934C165.247 54.3817 164.681 54.4332 164.107 54.4479C163.548 54.4627 162.989 54.47 162.43 54.47C161.767 54.47 161.135 54.4038 160.531 54.2714C159.928 54.1537 159.369 53.9992 158.854 53.8079C158.354 53.6166 157.905 53.4106 157.508 53.1899C157.125 52.9544 156.823 52.7337 156.603 52.5277C155.955 51.9391 155.47 51.2402 155.146 50.4309C154.822 49.6069 154.66 48.7534 154.66 47.8706C154.66 47.0907 154.771 46.3329 154.991 45.5972C155.227 44.8615 155.551 44.1846 155.963 43.5666C156.595 42.6249 157.405 41.8965 158.39 41.3815C159.391 40.8665 160.443 40.609 161.547 40.609C162.165 40.609 162.768 40.6899 163.357 40.8518C163.96 41.0136 164.49 41.2638 164.946 41.6022C165.417 41.9406 165.792 42.3747 166.071 42.9044C166.351 43.4341 166.491 44.0669 166.491 44.8026ZM159.803 43.9197C159.774 43.9639 159.752 44.008 159.737 44.0522C159.737 44.0963 159.752 44.1552 159.781 44.2287C159.884 44.4936 160.009 44.7585 160.156 45.0233C160.303 45.2735 160.487 45.5089 160.708 45.7296C160.929 45.9356 161.186 46.1048 161.481 46.2373C161.775 46.355 162.121 46.4138 162.518 46.4138C163.033 46.4138 163.43 46.274 163.71 45.9945C163.989 45.7149 164.129 45.2955 164.129 44.7364C164.129 44.1772 163.916 43.7284 163.489 43.39C163.077 43.0369 162.562 42.8603 161.944 42.8603C161.635 42.8456 161.282 42.9118 160.885 43.0589C160.487 43.2061 160.127 43.493 159.803 43.9197Z" fill="#1C1C1C"/>
<path d="M177.637 53.2119C176.975 53.2119 176.372 53.1089 175.827 52.9029C175.283 52.6969 174.79 52.4321 174.348 52.1083C173.922 51.7699 173.554 51.402 173.245 51.0048C172.95 50.6075 172.722 50.2175 172.561 49.835C172.237 49.0992 172.075 48.2826 172.075 47.385C172.075 46.87 172.126 46.355 172.229 45.84C172.347 45.325 172.524 44.8467 172.759 44.4053C173.436 43.1546 174.304 42.2128 175.364 41.5801C176.438 40.9327 177.806 40.609 179.469 40.609C180.19 40.609 180.867 40.6973 181.5 40.8738C182.147 41.0357 182.706 41.2711 183.177 41.5801C184.354 42.3747 185.2 43.2576 185.715 44.2287C185.862 44.523 185.988 44.832 186.091 45.1557C186.208 45.4647 186.297 45.7811 186.355 46.1048C186.385 46.3991 186.37 46.561 186.311 46.5904C186.267 46.6051 186.164 46.5389 186.002 46.3918C185.428 45.8915 184.884 45.4721 184.369 45.1337C183.854 44.7952 183.332 44.523 182.802 44.317C182.272 44.0963 181.72 43.9418 181.146 43.8535C180.587 43.7652 179.969 43.7211 179.292 43.7211C178.527 43.7358 177.917 43.8829 177.46 44.1625C177.004 44.4421 176.659 44.7217 176.423 45.0012C175.938 45.6045 175.695 46.2961 175.695 47.076C175.695 47.4733 175.768 47.8338 175.915 48.1575C176.063 48.4812 176.261 48.7682 176.511 49.0183C176.776 49.2537 177.085 49.4377 177.438 49.5701C177.792 49.7025 178.167 49.7687 178.564 49.7687C178.976 49.7687 179.403 49.6731 179.844 49.4818C180.3 49.2905 180.683 48.9815 180.992 48.5548C181.242 48.2164 181.397 47.8853 181.455 47.5616C181.529 47.2231 181.558 46.8406 181.544 46.4138C181.544 46.1637 181.632 46.0901 181.809 46.1931L185.031 48.0471C185.178 48.1354 185.266 48.2311 185.296 48.3341C185.325 48.4371 185.34 48.5916 185.34 48.7976C185.34 49.3714 185.333 50.0115 185.318 50.7178C185.318 51.4094 185.311 52.1231 185.296 52.8588C185.281 53.5798 185.259 54.3008 185.23 55.0218C185.215 55.7575 185.186 56.4418 185.141 57.0745C185.038 58.9285 184.7 60.525 184.126 61.8641C183.552 63.2031 182.75 64.314 181.72 65.1969C180.94 65.859 180.116 66.374 179.248 66.7419C178.395 67.1245 177.505 67.4114 176.578 67.6027C176.107 67.691 175.636 67.7646 175.165 67.8234C174.694 67.8823 174.216 67.9191 173.73 67.9338C173.245 67.9632 172.737 67.9779 172.207 67.9779C171.678 67.9926 171.119 68 170.53 68C170.03 68 169.507 67.9926 168.963 67.9779C168.418 67.9632 167.881 67.9044 167.352 67.8014C166.822 67.7131 166.322 67.5586 165.851 67.3378C165.38 67.1171 164.968 66.8008 164.615 66.3888C163.599 65.1527 163.312 63.2031 163.754 60.5398C163.945 59.4509 164.232 58.5312 164.615 57.7808C164.997 57.0303 165.387 56.3755 165.785 55.8164C165.902 55.6693 166.035 55.6398 166.182 55.7281L169.294 57.4718C169.382 57.5159 169.448 57.5748 169.493 57.6484C169.537 57.7219 169.5 57.8176 169.382 57.9353C169.044 58.2737 168.705 58.6121 168.367 58.9506C168.028 59.3037 167.705 59.6716 167.396 60.0542C167.087 60.4515 166.815 60.8561 166.579 61.2681C166.344 61.6948 166.174 62.151 166.071 62.6366C166.027 62.8426 166.101 62.9971 166.292 63.1001C166.822 63.3502 167.528 63.5121 168.411 63.5857C169.294 63.6592 170.295 63.696 171.413 63.696C171.589 63.696 171.81 63.6887 172.075 63.6739C172.355 63.6739 172.634 63.6666 172.914 63.6519C173.193 63.6519 173.451 63.6445 173.686 63.6298C173.936 63.6298 174.128 63.6224 174.26 63.6077C175.305 63.5047 176.217 63.3723 176.997 63.2104C177.777 63.0486 178.439 62.8058 178.983 62.4821C179.528 62.1583 179.969 61.739 180.308 61.224C180.646 60.709 180.904 60.0542 181.08 59.2596C181.272 58.465 181.389 57.5086 181.433 56.3903C181.478 55.272 181.478 53.9477 181.433 52.4173C181.419 52.2113 181.382 52.0936 181.323 52.0642C181.264 52.0348 181.176 52.0642 181.058 52.1525C180.587 52.5056 180.028 52.7705 179.381 52.9471C178.748 53.1236 178.167 53.2119 177.637 53.2119Z" fill="#1C1C1C"/>
<path d="M199.709 49.7025C199.341 49.7025 198.914 49.6142 198.429 49.4377C197.958 49.2464 197.509 48.9374 197.082 48.5106C197.023 48.4371 196.972 48.415 196.928 48.4444C196.884 48.4591 196.862 48.5106 196.862 48.5989C196.862 49.1728 196.854 49.6363 196.839 49.9895C196.839 50.3426 196.832 50.6737 196.817 50.9827C196.817 51.277 196.81 51.6007 196.795 51.9538C196.795 52.307 196.788 52.7779 196.773 53.3664C196.759 53.7343 196.648 54.0065 196.442 54.1831C196.251 54.3744 196.008 54.47 195.714 54.47C195.493 54.47 195.236 54.4774 194.941 54.4921C194.647 54.5068 194.419 54.5142 194.257 54.5142C193.948 54.5142 193.691 54.4185 193.485 54.2272C193.279 54.0507 193.168 53.7784 193.153 53.4106L193.087 51.4241C193.087 51.2623 193.021 51.2255 192.889 51.3138C192.388 51.6522 191.881 51.8729 191.366 51.9759C190.865 52.0789 190.387 52.1157 189.931 52.0863C189.475 52.0421 189.048 51.9612 188.651 51.8435C188.268 51.7111 187.945 51.5786 187.68 51.4462C187.474 51.3432 187.385 51.2623 187.415 51.2034C187.444 51.1298 187.54 51.0563 187.702 50.9827C187.937 50.8944 188.202 50.784 188.496 50.6516C188.791 50.5045 189.092 50.3352 189.401 50.144C189.725 49.9527 190.034 49.7467 190.328 49.5259C190.637 49.2905 190.91 49.0404 191.145 48.7755C191.454 48.4224 191.704 48.106 191.895 47.8264C192.087 47.5468 192.234 47.2893 192.337 47.0539C192.455 46.8038 192.528 46.5683 192.558 46.3476C192.602 46.1269 192.631 45.8915 192.646 45.6413C192.661 45.4206 192.661 45.1557 192.646 44.8467C192.631 44.523 192.616 44.2434 192.602 44.008C192.587 43.6696 192.653 43.3753 192.8 43.1251C192.947 42.8603 193.212 42.566 193.595 42.2423L196.751 39.6378C196.81 39.5937 196.884 39.5642 196.972 39.5495C197.06 39.5201 197.104 39.5863 197.104 39.7482L197.06 44.0963C197.06 44.2876 197.097 44.5083 197.171 44.7585C197.244 45.0086 197.377 45.244 197.568 45.4647C197.774 45.6855 198.053 45.8841 198.407 46.0607C198.774 46.2225 199.245 46.3182 199.819 46.3476C200.113 46.3623 200.408 46.3255 200.702 46.2373C200.996 46.1343 201.254 45.9871 201.475 45.7958C201.71 45.5898 201.901 45.3397 202.048 45.0454C202.196 44.7364 202.269 44.3906 202.269 44.008C202.254 43.6696 202.321 43.3753 202.468 43.1251C202.615 42.8603 202.88 42.566 203.262 42.2423L206.419 39.6378C206.477 39.5937 206.551 39.5642 206.639 39.5495C206.728 39.5201 206.772 39.5863 206.772 39.7482L206.728 42.6396C206.713 43.3311 206.691 44.0816 206.661 44.8909C206.632 45.7002 206.617 46.5463 206.617 47.4291C206.617 47.9147 206.661 48.3194 206.75 48.6431C206.853 48.9668 207.051 49.2243 207.346 49.4156C207.669 49.6069 208.067 49.7614 208.537 49.8791C209.008 49.9821 209.494 50.063 209.994 50.1219C210.495 50.1807 210.987 50.2175 211.473 50.2322C211.959 50.247 212.385 50.2543 212.753 50.2543C214.048 50.2543 215.174 50.2396 216.13 50.2102C217.087 50.1807 217.903 50.1292 218.58 50.0557C219.257 49.9821 219.801 49.8938 220.213 49.7908C220.625 49.6731 220.942 49.5259 221.163 49.3494C221.413 49.1581 221.604 48.9079 221.736 48.5989C221.884 48.2752 222.001 47.9 222.09 47.4733C222.163 47.2084 222.229 47.0613 222.288 47.0318C222.362 47.0024 222.435 47.1569 222.509 47.4953C222.612 47.9515 222.708 48.4591 222.796 49.0183C222.884 49.5627 222.928 50.0925 222.928 50.6075C222.928 51.1666 222.862 51.6448 222.73 52.0421C222.627 52.3364 222.494 52.6307 222.332 52.925C222.17 53.2193 221.935 53.4841 221.626 53.7196C221.332 53.9403 220.934 54.1169 220.434 54.2493C219.949 54.3964 219.331 54.47 218.58 54.47L212.334 54.4038C212.04 54.4038 211.672 54.4038 211.23 54.4038C210.804 54.4038 210.34 54.3964 209.84 54.3817C209.339 54.3817 208.824 54.367 208.295 54.3376C207.765 54.3082 207.257 54.264 206.772 54.2052C206.286 54.1463 205.837 54.0654 205.425 53.9624C205.028 53.8594 204.704 53.7269 204.454 53.5651C203.969 53.2561 203.593 52.8882 203.329 52.4615C203.064 52.0201 202.872 51.5713 202.755 51.1151C202.637 50.6442 202.571 50.1881 202.556 49.7467C202.541 49.3052 202.541 48.9227 202.556 48.5989C202.556 48.5106 202.534 48.4591 202.49 48.4444C202.446 48.415 202.394 48.4371 202.335 48.5106C201.923 48.9374 201.475 49.2464 200.989 49.4377C200.503 49.6142 200.077 49.7025 199.709 49.7025Z" fill="#1C1C1C"/>
<path d="M226.526 40.4986C226.923 40.4986 227.394 40.6016 227.939 40.8076C228.498 40.9989 229.072 41.2711 229.66 41.6243C230.249 41.9627 230.83 42.3673 231.404 42.8382C231.992 43.2944 232.507 43.7946 232.949 44.3391C233.405 44.8688 233.773 45.428 234.052 46.0165C234.332 46.6051 234.464 47.1863 234.45 47.7602C234.435 48.5989 234.251 49.4377 233.898 50.2764C233.559 51.1004 233.089 51.8508 232.485 52.5277C231.882 53.1899 231.161 53.7269 230.322 54.1389C229.484 54.5509 228.557 54.757 227.541 54.757C227.173 54.757 226.776 54.7275 226.349 54.6687C225.923 54.6245 225.489 54.5362 225.047 54.4038C224.62 54.2714 224.201 54.0948 223.789 53.8741C223.392 53.6386 223.031 53.3444 222.708 52.9912C221.751 51.8876 221.376 50.35 221.582 48.3782C221.714 47.2305 221.928 46.171 222.222 45.1999C222.516 44.2287 222.877 43.3974 223.303 42.7058C223.745 42.0142 224.238 41.4771 224.782 41.0945C225.327 40.6973 225.908 40.4986 226.526 40.4986ZM227.409 50.453C228.1 50.4824 228.733 50.4382 229.307 50.3205C229.881 50.1881 230.374 50.0189 230.786 49.8129C231.198 49.5922 231.514 49.3641 231.735 49.1287C231.97 48.8785 232.095 48.6578 232.11 48.4665C232.125 48.2164 231.978 47.9221 231.669 47.5836C231.345 47.2452 230.881 46.8847 230.278 46.5021C229.69 46.1195 229.072 45.7664 228.424 45.4427C227.791 45.119 227.188 44.8541 226.614 44.6481C226.055 44.4274 225.643 44.3244 225.378 44.3391C225.143 44.3538 224.974 44.4127 224.871 44.5157C224.782 44.6039 224.701 44.6996 224.628 44.8026C224.51 44.9792 224.4 45.1925 224.297 45.4427C224.194 45.6928 224.105 45.9798 224.032 46.3035C223.988 46.5095 223.958 46.7302 223.944 46.9656C223.944 47.1863 223.973 47.4071 224.032 47.6278C224.091 47.8926 224.186 48.1869 224.319 48.5106C224.451 48.8197 224.642 49.1139 224.893 49.3935C225.143 49.6731 225.474 49.9159 225.886 50.1219C226.298 50.3132 226.806 50.4235 227.409 50.453Z" fill="#1C1C1C"/>
<path d="M256.235 40.6531C256.455 40.609 256.72 40.609 257.029 40.6531C257.353 40.6825 257.684 40.8444 258.022 41.1387C258.258 41.3447 258.405 41.6169 258.464 41.9553C258.537 42.2791 258.559 42.6837 258.53 43.1693C258.515 43.5077 258.501 43.8388 258.486 44.1625C258.471 44.4715 258.456 44.7952 258.442 45.1337C258.427 45.4574 258.405 45.8032 258.375 46.171C258.361 46.5242 258.339 46.9215 258.309 47.3629C258.28 47.8485 258.302 48.2679 258.375 48.621C258.464 48.9594 258.655 49.2243 258.949 49.4156C259.273 49.6069 259.715 49.7614 260.274 49.8791C260.833 49.9821 261.414 50.063 262.017 50.1219C262.635 50.1807 263.231 50.2175 263.805 50.2322C264.379 50.247 264.85 50.2543 265.218 50.2543C266.513 50.2543 267.638 50.2396 268.595 50.2102C269.551 50.1807 270.368 50.1292 271.045 50.0557C271.722 49.9821 272.266 49.8938 272.678 49.7908C273.09 49.6731 273.406 49.5259 273.627 49.3494C273.877 49.1581 274.068 48.9079 274.201 48.5989C274.348 48.2752 274.466 47.9 274.554 47.4733C274.628 47.2084 274.694 47.0613 274.753 47.0318C274.826 47.0024 274.9 47.1569 274.973 47.4953C275.076 47.9515 275.172 48.4591 275.26 49.0183C275.349 49.5627 275.393 50.0925 275.393 50.6075C275.393 51.1666 275.327 51.6448 275.194 52.0421C275.091 52.3364 274.959 52.6307 274.797 52.925C274.635 53.2193 274.4 53.4841 274.091 53.7196C273.796 53.9403 273.399 54.1169 272.899 54.2493C272.413 54.3964 271.795 54.47 271.045 54.47L264.798 54.4038C264.372 54.4038 263.798 54.4038 263.077 54.4038C262.356 54.4038 261.605 54.3817 260.825 54.3376C260.06 54.2934 259.317 54.2199 258.596 54.1169C257.89 53.9992 257.331 53.8152 256.919 53.5651C256.507 53.3296 256.176 53.028 255.926 52.6601C255.675 52.2923 255.477 51.895 255.33 51.4683C255.197 51.0268 255.109 50.578 255.065 50.1219C255.021 49.651 255.006 49.1949 255.021 48.7534C255.035 48.3709 255.057 47.8926 255.087 47.3188C255.116 46.7302 255.182 45.9724 255.285 45.0454C255.3 44.913 255.278 44.7879 255.219 44.6702C255.175 44.5524 255.057 44.4936 254.866 44.4936C254.719 44.4936 254.557 44.5598 254.38 44.6922C254.204 44.8247 254.079 44.935 254.005 45.0233C253.534 45.4942 253.122 46.0313 252.769 46.6346C252.431 47.2378 252.137 47.8853 251.886 48.5769C251.636 49.2537 251.423 49.96 251.246 50.6958C251.084 51.4315 250.937 52.1598 250.805 52.8809C250.731 53.3223 250.592 53.7049 250.386 54.0286C250.194 54.3523 249.878 54.5142 249.436 54.5142C249.01 54.5142 248.679 54.4038 248.443 54.1831C248.208 53.9624 248.083 53.646 248.068 53.234C248.053 52.6307 248.061 52.0127 248.09 51.38C248.119 50.7325 248.164 50.0557 248.222 49.3494C248.296 48.6284 248.384 47.8632 248.487 47.0539C248.605 46.2446 248.752 45.3617 248.929 44.4053C248.943 44.3464 248.951 44.2729 248.951 44.1846C248.966 44.0816 248.958 43.9859 248.929 43.8977C248.914 43.8094 248.863 43.7358 248.774 43.6769C248.701 43.6181 248.583 43.5886 248.421 43.5886C248.274 43.5886 248.127 43.6696 247.98 43.8314C247.833 43.9786 247.722 44.1919 247.649 44.4715C247.487 45.0601 247.295 45.7223 247.075 46.458C246.854 47.179 246.589 47.9147 246.28 48.6651C245.986 49.4009 245.64 50.1219 245.243 50.8282C244.846 51.5345 244.389 52.1598 243.874 52.7043C243.374 53.2487 242.808 53.6901 242.175 54.0286C241.542 54.3523 240.836 54.5068 240.056 54.4921H239.438C238.658 54.4921 237.974 54.4112 237.385 54.2493C236.797 54.1022 236.296 53.9109 235.884 53.6754C235.472 53.4253 235.134 53.1531 234.869 52.8588C234.619 52.5645 234.435 52.2776 234.317 51.998C234.2 51.7037 234.119 51.3653 234.074 50.9827C234.03 50.5854 234.008 50.1881 234.008 49.7908C234.008 49.4082 234.023 49.0257 234.052 48.6431C234.097 48.2458 234.148 47.8779 234.207 47.5395C234.266 47.2599 234.325 47.1275 234.383 47.1422C234.442 47.1569 234.501 47.2893 234.56 47.5395C234.634 47.9368 234.737 48.3046 234.869 48.6431C235.002 48.9815 235.215 49.2684 235.509 49.5039C235.789 49.7246 236.238 49.9453 236.856 50.166C237.474 50.372 238.334 50.4897 239.438 50.5192C240.424 50.5192 241.233 50.3205 241.866 49.9232C242.513 49.5259 243.043 49.0404 243.455 48.4665C243.867 47.8926 244.191 47.282 244.426 46.6346C244.662 45.9724 244.86 45.3765 245.022 44.8467C245.287 44.008 245.537 43.3385 245.773 42.8382C246.023 42.3232 246.368 41.8744 246.81 41.4918C246.972 41.3447 247.163 41.2196 247.384 41.1166C247.604 40.9989 247.833 40.9033 248.068 40.8297C248.318 40.7414 248.568 40.6825 248.818 40.6531C249.069 40.609 249.311 40.5942 249.547 40.609C249.768 40.6237 249.974 40.6825 250.165 40.7855C250.356 40.8885 250.547 41.021 250.739 41.1828C251.151 41.5654 251.32 42.2349 251.246 43.1914L251.136 44.7364C251.136 44.81 251.136 44.8762 251.136 44.935C251.151 44.9939 251.18 45.0233 251.224 45.0233C251.283 45.0233 251.32 45.0086 251.335 44.9792C251.364 44.9497 251.401 44.8982 251.445 44.8247C251.548 44.6628 251.695 44.4642 251.886 44.2287C252.078 43.9933 252.284 43.7505 252.504 43.5004C252.725 43.2355 252.953 42.978 253.189 42.7278C253.439 42.4777 253.674 42.2496 253.895 42.0436C254.219 41.7493 254.572 41.4698 254.954 41.2049C255.337 40.94 255.764 40.7561 256.235 40.6531Z" fill="#1C1C1C"/>
<path d="M28.2517 8.07484V10.0935L18.1582 15.1403V8.07484C18.1582 6.40941 19.5107 5.04678 21.1863 5.04678H25.2237C26.8992 5.04678 28.2517 6.40941 28.2517 8.07484Z" fill="#965353"/>
<path d="M18.1582 15.1403L15.1302 16.6543L15.1201 16.6341C15.1302 16.4726 15.1302 16.3111 15.1302 16.1395C15.1302 12.2434 11.9709 9.08416 8.07481 9.08416C6.29835 9.08416 4.68339 9.73014 3.44189 10.8001C3.20974 11.012 2.97759 11.2341 2.76562 11.4763L0 10.0935C0 4.5118 4.5118 0 10.0834 0C10.0834 2.78581 12.3444 5.04676 15.1302 5.04676C16.8057 5.04676 18.1582 6.40938 18.1582 8.07481L18.1582 15.1403Z" fill="#A0D468"/>
<path d="M8.07481 9.08411C11.9709 9.08411 15.1302 12.2434 15.1302 16.1395C15.1302 16.3111 15.1302 16.4726 15.1201 16.6341L15.1302 16.6542L14.1208 17.1589L2.76563 11.4763C2.97759 11.234 3.20873 11.012 3.44189 10.8C4.68339 9.73009 6.29835 9.08411 8.07481 9.08411V9.08411Z" fill="#ED5565"/>
<path d="M14.1208 17.159L0 24.2245L0 10.0936L2.76562 11.4764L14.1208 17.159Z" fill="#F7C292"/>
<path d="M28.2517 10.0936L28.2517 56.5237C28.2517 59.8647 26.555 62.5798 23.205 62.5798L6.05611 62.5798C2.70506 62.5798 0 59.8647 0 56.5237L0 24.2245L14.1208 17.159L15.1302 16.6543L18.1582 15.1403L28.2517 10.0936Z" fill="#FFD2A6"/>
<path d="M25.2208 11.6086L25.2208 56.5237C25.2208 59.8647 23.5241 62.5798 20.1741 62.5798H23.2052C26.5552 62.5798 28.2519 59.8647 28.2519 56.5237L28.2519 10.0936L25.2208 11.6086Z" fill="#F7C292"/>
<path d="M8.06575 55.5164C7.50758 55.5164 7.0564 55.0652 7.0564 54.507L7.0564 27.2515C7.0564 26.6933 7.50758 26.2422 8.06575 26.2422C8.62392 26.2422 9.0751 26.6933 9.0751 27.2515L9.0751 54.507C9.0751 55.0652 8.62392 55.5164 8.06575 55.5164Z" fill="#F7C292"/>
<path d="M14.1199 55.5164C13.5618 55.5164 13.1106 55.0652 13.1106 54.507L13.1106 27.2515C13.1106 26.6933 13.5618 26.2422 14.1199 26.2422C14.6781 26.2422 15.1293 26.6933 15.1293 27.2515L15.1293 54.507C15.1293 55.0652 14.6781 55.5164 14.1199 55.5164Z" fill="#F7C292"/>
<path d="M20.1738 55.5164C19.6156 55.5164 19.1644 55.0652 19.1644 54.507L19.1644 27.2515C19.1644 26.6933 19.6156 26.2422 20.1738 26.2422C20.732 26.2422 21.1831 26.6933 21.1831 27.2515L21.1831 54.507C21.1831 55.0652 20.732 55.5164 20.1738 55.5164Z" fill="#F7C292"/>
</svg>
